<svg width="50" height="98" viewBox="0 0 50 98" fill="none" xmlns="http://www.w3.org/2000/svg">
<path d="M34.4693 45.4188C49.1077 38.7525 53.6497 16.9161 42.2679 1.40085C42.0827 1.14828 41.7852 1 41.472 1H7.98389C7.66094 1 7.35641 1.15628 7.17277 1.42194C-4.94153 18.9462 0.665245 46.508 24.9693 47.5C28.4893 47.6437 31.6541 46.7008 34.4693 45.4188ZM34.4693 45.4188C34.4693 45.4188 27.4693 48.2 27.4693 53C27.4693 57.8 27.4693 78.3333 27.4693 88C27.4693 89.6667 28.6693 93 33.4693 93H39.4693C42.4693 93 42.4693 96.5 39.4693 96.5C33.8693 96.5 17.4693 96.5 9.96927 96.5C7.46927 96.5 7.46927 93.5 9.96927 93.5C14.7693 93.5 16.3026 93.5 16.4693 93.5C18.4693 93.3333 22.4693 92 22.4693 88C22.4693 83 22.4693 55.5 22.4693 53C22.4693 51 17.9693 47.0854 15.4693 45.4188" stroke="white" stroke-width="2"/>
</svg>
