<svg width="67" height="80" viewBox="0 0 67 80" fill="none" xmlns="http://www.w3.org/2000/svg">
<path d="M42.9932 0C44.12 0 45 0.934046 44.9932 2.02637C44.9672 6.19991 44.9596 10.1115 44.9648 13.7783C48.5847 13.1023 53.4337 12.873 57.5898 13.707C59.9056 14.1718 62.0931 14.9826 63.7285 16.3086C65.3985 17.6627 66.4658 19.5376 66.5 21.9854C66.6248 30.9732 66.6262 37.0577 66.2539 41.3438C65.8816 45.6288 65.1254 48.2807 63.6104 50.2891C62.1229 52.2608 59.9695 53.502 57.2207 55.1328C54.5587 56.7122 51.1553 58.7499 46.7744 62.2568C46.8462 62.8296 46.9173 63.3617 46.9893 63.8564C47.4857 67.2718 47.9727 68.8934 48.3252 69.9287C48.6803 70.9718 49 71.662 49 73C49 74.6247 48.6622 76.0102 47.6104 77.0303C46.599 78.011 45.0939 78.484 43.1973 78.7412C41.2783 79.0014 38.762 79.0625 35.5547 79.0625C33.9443 79.0625 32.1444 79.0469 30.1436 79.0312C28.4189 79.0178 26.5421 79.0054 24.5 79.002C22.4579 79.0054 20.5811 79.0178 18.8564 79.0312C16.8556 79.0469 15.0557 79.0625 13.4453 79.0625C10.238 79.0625 7.72173 79.0014 5.80273 78.7412C3.90606 78.484 2.40104 78.011 1.38965 77.0303C0.337787 76.0102 0 74.6247 0 73C0 71.662 0.319681 70.9718 0.674805 69.9287C1.02729 68.8934 1.5143 67.2718 2.01074 63.8564C3.11149 56.2835 4.24329 39.9961 4.00684 2.02637C4.00003 0.934046 4.88001 0 6.00684 0H42.9932ZM45.2539 66.0596C44.3659 66.557 43.0814 67.0426 41.3135 67.4717C38.0533 68.2628 33.0216 68.8904 25.5 68.9854V69C25.1621 69 24.8288 68.9962 24.5 68.9941C24.1712 68.9962 23.8379 69 23.5 69V68.9854C15.9784 68.8904 10.9467 68.2628 7.68652 67.4717C5.91864 67.0426 4.6341 66.557 3.74609 66.0596C3.72523 66.0479 3.7051 66.0352 3.68457 66.0234C3.27605 68.3315 2.88593 69.6404 2.56836 70.5732C2.17578 71.7263 2 72.0655 2 73C2 74.3752 2.28732 75.1148 2.78223 75.5947C3.31767 76.1139 4.28176 76.516 6.07227 76.7588C7.84073 76.9985 10.231 77.0625 13.4453 77.0625C15.0459 77.0625 16.8358 77.0469 18.8408 77.0312C20.2826 77.02 21.8336 77.0103 23.5 77.0049V77C23.8377 77 24.171 77.0014 24.5 77.002C24.829 77.0014 25.1623 77 25.5 77V77.0049C27.1664 77.0103 28.7174 77.02 30.1592 77.0312C32.1642 77.0469 33.9541 77.0625 35.5547 77.0625C38.769 77.0625 41.1593 76.9985 42.9277 76.7588C44.7182 76.516 45.6823 76.1139 46.2178 75.5947C46.7127 75.1148 47 74.3752 47 73C47 72.0655 46.8242 71.7263 46.4316 70.5732C46.1141 69.6404 45.7239 68.3315 45.3154 66.0234C45.2949 66.0352 45.2748 66.0479 45.2539 66.0596ZM6.00781 2.00781C6.00707 2.00961 6.00682 2.01147 6.00684 2.01367C6.24004 39.46 5.14156 55.9452 4.0332 63.8135C4.04223 63.8232 4.05031 63.8355 4.06152 63.8467C4.17966 63.9646 4.38707 64.1269 4.72363 64.3154C5.39746 64.6929 6.49249 65.1241 8.1582 65.5283C11.3538 66.3038 16.5136 66.9445 24.5 66.9941C32.4864 66.9445 37.6462 66.3038 40.8418 65.5283C42.5075 65.1241 43.6025 64.6929 44.2764 64.3154C44.6129 64.1269 44.8203 63.9646 44.9385 63.8467C44.9497 63.8355 44.9578 63.8232 44.9668 63.8135C43.8584 55.9452 42.76 39.46 42.9932 2.01367C42.9932 2.01147 42.9929 2.00961 42.9922 2.00781C42.9912 2.00547 42.9897 2.00242 42.9873 2H6.0127C6.01034 2.00242 6.00885 2.00547 6.00781 2.00781ZM57.1963 15.668C53.1949 14.865 48.4122 15.123 44.9678 15.8145C44.9789 19.5553 45.0065 23.0318 45.0469 26.2637C46.3834 25.3263 46.9594 24.2785 47.627 23.2627C48.0729 22.5841 48.6074 21.8461 49.4824 21.3105C50.3652 20.7703 51.4834 20.5 53 20.5C55.2193 20.5 56.5769 22.0825 57.3545 23.9707C58.1322 25.8596 58.4662 28.3272 58.5615 30.7734C58.6576 33.2396 58.514 35.7754 58.2832 37.8525C58.0575 39.8838 57.7353 41.6043 57.4287 42.3711C55.573 47.0105 52.7987 48.8271 50.0312 49.0889C48.3944 49.2436 46.863 48.8428 45.668 48.3154C45.9131 53.217 46.2059 56.9879 46.5098 59.918C50.5306 56.7924 53.712 54.8899 56.2012 53.4131C59.0614 51.7161 60.8147 50.6755 62.0146 49.085C63.1868 47.531 63.8997 45.3384 64.2617 41.1709C64.6237 37.0039 64.6252 31.0251 64.5 22.0137C64.4749 20.2121 63.721 18.8778 62.4688 17.8623C61.1816 16.8187 59.3447 16.0991 57.1963 15.668ZM53 22.5C51.7168 22.5 50.9967 22.7288 50.5264 23.0166C50.0487 23.309 49.7142 23.7278 49.2979 24.3613C48.5102 25.5599 47.6071 27.2395 45.0811 28.5791C45.1852 35.5031 45.3539 41.2413 45.5635 46.0107C46.5496 46.6124 48.1605 47.2569 49.8438 47.0977C51.7012 46.9218 53.9272 45.7382 55.5713 41.6279C55.7646 41.1441 56.0676 39.6774 56.2949 37.6318C56.5172 35.6311 56.6549 33.1966 56.5635 30.8506C56.4713 28.485 56.1487 26.2963 55.5049 24.7324C54.8606 23.1679 54.0306 22.5 53 22.5Z" fill="white"/>
</svg>
