<svg width="42" height="98" viewBox="0 0 42 98" fill="none" xmlns="http://www.w3.org/2000/svg">
<path d="M6.96173 85C6.44576 87.3784 5.80262 89.8736 5.01471 92.5C4.12003 95.4823 5.51499 96.5 6.51484 96.5C7.51468 96.5 34.515 96.5 35.5148 96.5C36.5147 96.5 37.6813 95.8586 36.5147 92C35.7738 89.5495 35.1629 87.2207 34.6667 85M6.96173 85C15.2399 46.8408 -9.21835 38.755 6.25108 1.62636C6.40536 1.25609 6.77512 1 7.17624 1H34.8073C35.2313 1 35.6158 1.28469 35.7542 1.68542C49.3951 41.1611 26.5027 48.4634 34.6667 85M6.96173 85C10.5147 89.5 32.5147 89 34.6667 85" stroke="white" stroke-width="2"/>
</svg>
