<svg width="38" height="94" viewBox="0 0 38 94" fill="none" xmlns="http://www.w3.org/2000/svg">
<path fill-rule="evenodd" clip-rule="evenodd" d="M35.1041 0C36.3972 0 37.2777 1.20773 37.068 2.38574C29.4795 45.0015 28.4301 65.2462 29.2457 75.3525C29.6518 80.3837 30.5157 82.848 31.2301 84.2939C31.6143 85.0715 31.9101 85.4854 32.234 86.0654C32.5399 86.6134 32.7994 87.208 32.7994 88C32.7994 89.5198 31.9892 90.6065 30.859 91.3252C29.7737 92.0152 28.3489 92.4051 26.8951 92.6377C24.0898 93.0865 20.7542 93.0075 18.5494 93.001C16.3446 93.0075 13.0088 93.0865 10.2037 92.6377C8.74992 92.4051 7.32512 92.0152 6.23986 91.3252C5.10972 90.6065 4.29943 89.5198 4.29943 88C4.29943 87.208 4.55894 86.6133 4.86486 86.0654C5.18872 85.4854 5.48457 85.0715 5.86876 84.2939C6.58316 82.848 7.44709 80.3838 7.85314 75.3525C8.66875 65.2462 7.61939 45.0015 0.0308724 2.38574C-0.1788 1.20782 0.701835 0.000156126 1.99474 0H35.1041ZM8.91857 81.6455C8.53114 83.198 8.08956 84.3138 7.66173 85.1797C7.26161 85.9895 6.82366 86.6601 6.61095 87.041C6.38047 87.4539 6.29943 87.6973 6.29943 88C6.29943 88.68 6.61449 89.194 7.31212 89.6377C8.05479 90.1099 9.16185 90.4448 10.5201 90.6621C13.0408 91.0654 16.0395 91.0116 18.2994 91.002V91C18.3815 91 18.465 91.0008 18.5494 91.001C18.6339 91.0008 18.7173 91 18.7994 91V91.002C21.0594 91.0116 24.058 91.0654 26.5787 90.6621C27.937 90.4448 29.044 90.1099 29.7867 89.6377C30.4845 89.1939 30.7994 88.6801 30.7994 88C30.7994 87.6973 30.7184 87.4539 30.4879 87.041C30.2752 86.66 29.8372 85.9895 29.4371 85.1797C29.0241 84.3437 28.5999 83.2745 28.2223 81.8047C27.4342 82.4095 26.5058 82.89 25.5113 83.2578C23.6714 83.9383 21.5078 84.28 19.3277 84.3125C17.1452 84.345 14.9041 84.0689 12.9 83.4834C11.4332 83.0548 10.0561 82.4477 8.91857 81.6455ZM2.01134 2C2.00665 2.00608 2.00247 2.01354 2.0006 2.02051C1.99896 2.0267 1.99992 2.03133 2.0006 2.03516C9.59295 44.6725 10.685 65.1334 9.84728 75.5137C9.72556 77.0218 9.56125 78.3214 9.37072 79.4492C10.3362 80.3422 11.7552 81.0652 13.4606 81.5635C15.2532 82.0872 17.2937 82.3424 19.2985 82.3125C21.3058 82.2825 23.2362 81.9679 24.818 81.3828C26.1065 80.9062 27.0977 80.2749 27.7418 79.5332C27.5451 78.3861 27.3763 77.0593 27.2516 75.5137C26.4139 65.1334 27.5059 44.6724 35.0983 2.03516C35.0989 2.03131 35.0999 2.02675 35.0983 2.02051C35.0964 2.01351 35.0922 2.00608 35.0875 2H2.01134Z" fill="white"/>
</svg>
