<svg width="42" height="63" viewBox="0 0 42 63" fill="none" xmlns="http://www.w3.org/2000/svg">
<path fill-rule="evenodd" clip-rule="evenodd" d="M32.2185 0C32.8761 5.87667e-05 33.5012 0.319985 33.8737 0.879883L33.944 0.995117C37.2907 6.85401 40.7335 15.2096 41.0593 22.7334C41.2227 26.5071 40.6054 30.1539 38.7136 33.1689C36.8137 36.1966 33.697 38.4772 29.0837 39.6377H29.0827C28.1988 39.9057 26.8354 40.5455 25.7126 41.5596C24.6003 42.5643 23.7927 43.8674 23.7927 45.5V53C23.7927 53.9223 24.8299 57.1242 30.3357 57.5H34.2927C35.6731 57.5003 36.7927 58.6195 36.7927 60C36.7927 61.3805 35.6731 62.4997 34.2927 62.5H6.79171C5.4112 62.4998 4.29171 61.3806 4.29171 60C4.29171 58.6194 5.4112 57.5002 6.79171 57.5H10.7487C16.2545 57.1242 17.2917 53.9223 17.2917 53V45.5C17.2917 43.8674 16.4841 42.5643 15.3718 41.5596C14.249 40.5455 12.8856 39.9058 12.0017 39.6377H12.0007C7.38728 38.4772 4.27067 36.1966 2.37081 33.1689C0.478962 30.1539 -0.138273 26.5072 0.025106 22.7334C0.350913 15.2096 3.79366 6.85402 7.14034 0.995117L7.21065 0.879883C7.5832 0.319955 8.20823 1.54752e-05 8.86593 0H32.2185ZM24.0798 40.3516C22.9742 40.4345 21.8488 40.4819 20.7917 40.4941V40.5C20.7089 40.5 20.6255 40.4976 20.5417 40.4971C20.4582 40.4976 20.3752 40.5 20.2927 40.5V40.4941C19.2355 40.4819 18.1102 40.4345 17.0046 40.3516C18.2631 41.5886 19.2917 43.3008 19.2917 45.5V53C19.2917 55.0763 17.3327 59.0663 10.8591 59.498L10.8259 59.5H6.79171C6.51576 59.5002 6.29171 59.724 6.29171 60C6.29171 60.276 6.51577 60.4998 6.79171 60.5H34.2927C34.5686 60.4997 34.7927 60.276 34.7927 60C34.7927 59.724 34.5686 59.5003 34.2927 59.5H30.2585L30.2253 59.498C23.7516 59.0663 21.7927 55.0763 21.7927 53V45.5C21.7927 43.3008 22.8212 41.5886 24.0798 40.3516ZM8.86983 2C5.59805 7.73109 2.32898 15.7562 2.02315 22.8203C1.87066 26.343 2.4584 29.5448 4.06515 32.1055C5.65707 34.6425 8.31699 36.659 12.5339 37.71C14.4925 38.1981 17.7483 38.4799 20.5417 38.4961C23.3353 38.4799 26.5917 38.1981 28.5505 37.71C32.7673 36.659 35.4273 34.6425 37.0192 32.1055C38.626 29.5448 39.2137 26.343 39.0612 22.8203C38.7554 15.7562 35.4863 7.73109 32.2146 2H8.86983Z" fill="white"/>
</svg>
