<svg width="30" height="101" viewBox="0 0 30 101" fill="none" xmlns="http://www.w3.org/2000/svg">
<path d="M23.6758 0C24.5606 0.00012316 25.3512 0.577184 25.5947 1.43945L25.6357 1.61621C27.135 9.61251 28.4886 20.9583 28.0762 30.9521C27.8701 35.9453 27.2217 40.6584 25.8965 44.4639C24.6145 48.1452 22.6436 51.1283 19.6738 52.5732C19.0807 53.4967 18 55.8735 18 59V92.5C18 92.497 18.0107 92.674 18.2871 92.9971C18.5525 93.3072 19.0175 93.6939 19.7686 94.0889C21.2716 94.8794 23.8168 95.648 27.8447 95.9326C29.0285 96.0162 29.9999 96.9924 30 98.2227C30 99.4803 28.9803 100.5 27.7227 100.5H2.27734C1.0197 100.5 0 99.4803 0 98.2227C9.63273e-05 96.9924 0.971503 96.0162 2.15527 95.9326C6.1832 95.648 8.7284 94.8794 10.2314 94.0889C10.9825 93.6939 11.4475 93.3072 11.7129 92.9971C11.9893 92.674 12 92.497 12 92.5V59C12 55.8735 10.9193 53.4967 10.3262 52.5732C7.35643 51.1283 5.38548 48.1452 4.10352 44.4639C2.77833 40.6584 2.12991 35.9453 1.92383 30.9521C1.51136 20.9583 2.86502 9.61251 4.36426 1.61621L4.40527 1.43945C4.64883 0.577184 5.43944 0.00012316 6.32422 0H23.6758ZM17.0732 53.3301C16.3556 53.4418 15.631 53.5 15 53.5C14.369 53.5 13.6444 53.4418 12.9268 53.3301C13.4976 54.7653 14 56.7211 14 59V92.5C14 93.1389 13.6918 93.7609 13.2334 94.2969C12.7638 94.8458 12.0773 95.3785 11.1631 95.8594C9.33523 96.8207 6.49313 97.6312 2.2959 97.9277C2.11564 97.9405 2.0001 98.0855 2 98.2227C2 98.3757 2.12427 98.5 2.27734 98.5H27.7227C27.8757 98.5 28 98.3757 28 98.2227C27.9999 98.0855 27.8844 97.9405 27.7041 97.9277C23.5069 97.6312 20.6648 96.8207 18.8369 95.8594C17.9227 95.3785 17.2362 94.8458 16.7666 94.2969C16.3082 93.7609 16 93.1389 16 92.5V59C16 56.7211 16.5024 54.7653 17.0732 53.3301ZM6.32715 2C4.84559 9.90723 3.51801 21.0847 3.92188 30.8701C4.12411 35.7695 4.75847 40.2627 5.99219 43.8057C7.2313 47.364 9.0166 49.8038 11.4082 50.8721C12.2763 51.2597 13.7846 51.5 15 51.5C16.2154 51.5 17.7237 51.2597 18.5918 50.8721C20.9834 49.8038 22.7687 47.364 24.0078 43.8057C25.2415 40.2627 25.8759 35.7695 26.0781 30.8701C26.482 21.0847 25.1544 9.90723 23.6729 2H6.32715Z" fill="white"/>
</svg>
