<svg width="53" height="82" viewBox="0 0 53 82" fill="none" xmlns="http://www.w3.org/2000/svg">
<path fill-rule="evenodd" clip-rule="evenodd" d="M50.4215 0C51.9799 0.000315916 52.9514 1.70872 52.1256 3.04688C48.8608 8.33473 38.0229 25.8768 35.0573 30.5371C35.0489 30.5503 35.0395 30.5631 35.0309 30.5762V30.5771C33.1663 33.2187 29.2135 41.9763 29.2135 55C29.2135 62.8098 30.1236 68.0284 32.1959 71.3545C34.2003 74.5712 37.401 76.1737 42.5143 76.4551C43.9688 76.5354 45.2135 77.7133 45.2135 79.25C45.2135 80.7687 43.9821 81.9998 42.4635 82H9.9635C8.44472 82 7.21351 80.7688 7.21351 79.25C7.21351 77.7132 8.45804 76.5353 9.91272 76.4551C15.0259 76.1737 18.2267 74.5712 20.2311 71.3545C22.3033 68.0284 23.2135 62.8096 23.2135 55C23.2135 41.9766 19.2607 33.2189 17.3961 30.5771V30.5762C17.3875 30.5631 17.3782 30.5503 17.3698 30.5371C14.4043 25.8771 3.56641 8.33499 0.301396 3.04688C-0.524619 1.70859 0.446865 4.83432e-05 2.0055 0H50.4215ZM31.4762 32.7969C29.9406 33.2587 28.0909 33.5 26.2135 33.5C24.3361 33.5 22.4864 33.2586 20.9508 32.7969C20.9264 32.7895 20.902 32.78 20.8776 32.7725C22.9218 37.2502 25.2135 44.9361 25.2135 55C25.2135 62.8583 24.32 68.5748 21.9293 72.4121C19.4707 76.3582 15.5478 78.1481 10.0231 78.4521C9.5478 78.4783 9.2135 78.854 9.2135 79.25C9.2135 79.6642 9.54929 80 9.9635 80H42.4635C42.8775 79.9998 43.2135 79.6641 43.2135 79.25C43.2135 78.854 42.879 78.4785 42.4039 78.4521C36.8791 78.1481 32.9564 76.3582 30.4977 72.4121C28.1069 68.5748 27.2135 62.8584 27.2135 55C27.2135 44.936 29.5052 37.2502 31.5494 32.7725C31.5251 32.78 31.5006 32.7895 31.4762 32.7969ZM2.0055 2C5.27428 7.29421 16.0752 24.7748 19.0465 29.4453C19.0585 29.4624 19.0696 29.4806 19.0817 29.498C19.3989 29.9607 20.1951 30.4813 21.527 30.8818C22.8411 31.277 24.4915 31.5 26.2135 31.5C27.9355 31.5 29.5859 31.277 30.9 30.8818C32.2319 30.4812 33.0282 29.9607 33.3453 29.498C33.3574 29.4806 33.3685 29.4624 33.3805 29.4453C36.352 24.7745 47.1529 7.29395 50.4215 2H2.0055Z" fill="white"/>
</svg>
