<svg width="63" height="54" viewBox="0 0 63 54" fill="none" xmlns="http://www.w3.org/2000/svg">
<path fill-rule="evenodd" clip-rule="evenodd" d="M43.9981 0C45.1016 0.000117585 46 0.89579 45.9961 2.00391C45.9927 2.98464 45.9822 3.95615 45.9688 4.91797C48.2795 4.09239 51.3892 3.95817 54.25 4.92773C57.9106 6.16855 61.1817 9.21969 61.9873 14.8584C62.7755 20.3757 61.2023 27.1795 57.5869 32.748C54.065 38.1726 48.5397 42.518 41.2422 43.3096C40.2541 46.2237 39.1004 48.5632 37.7617 50.1455C37.1538 50.8639 36.5663 51.4887 35.8379 51.9805C35.0956 52.4815 34.2588 52.8113 33.1836 53.0312C31.237 53.4293 28.3437 53.4916 23.4981 53.498V53.5C23.3292 53.5 23.1625 53.4991 22.9981 53.499C22.8336 53.4991 22.6668 53.5 22.4981 53.5V53.498C17.6519 53.4916 14.7581 53.4295 12.8115 53.0312C11.7363 52.8113 10.8996 52.4817 10.1572 51.9805C9.42895 51.4887 8.84225 50.8639 8.23439 50.1455C6.88418 48.5496 5.72392 46.1863 4.73243 43.2471C3.73583 40.2926 2.88649 36.6869 2.19435 32.5498C0.809934 24.2748 0.0414326 13.8006 1.25463e-05 2.00781C-0.00386007 0.904829 0.88927 6.64012e-05 1.99806 0H43.9981ZM2.00001 2C2.04117 13.7207 2.80553 24.0818 4.167 32.2197C4.8478 36.289 5.67563 39.7842 6.62794 42.6074C7.58529 45.4455 8.64709 47.5372 9.76173 48.8545C10.3393 49.5371 10.7827 49.9889 11.2764 50.3223C11.7562 50.6462 12.3349 50.8917 13.2129 51.0713C14.9872 51.4342 17.7761 51.4956 22.9981 51.499C28.22 51.4956 31.0089 51.4342 32.7832 51.0713C33.6611 50.8917 34.239 50.6462 34.7188 50.3223C35.2126 49.9888 35.6566 49.5373 36.2344 48.8545C37.4205 47.4527 38.5443 45.1776 39.5459 42.0684C40.0794 40.4123 40.5725 38.5389 41.0205 36.4658C42.3964 30.0983 43.3369 21.9048 43.7539 12.4561C43.8396 10.5148 43.9037 8.5212 43.9443 6.48047C43.9736 5.01093 43.9908 3.51655 43.9961 2H2.00001ZM53.6074 6.82227C50.7884 5.8669 47.7582 6.207 45.9307 7.10059C45.9038 8.31276 45.869 9.50842 45.8262 10.6865C47.9963 9.63664 50.3009 9.48093 52.2715 10.1094C54.7742 10.9077 56.7002 12.9708 56.9932 15.9004C57.2673 18.6416 56.3249 23.5508 54.0098 27.9922C51.7782 32.2732 48.1508 36.3393 42.834 37.5283C42.5417 38.8282 42.2301 40.0553 41.8994 41.2041C48.0476 40.2527 52.7839 36.4727 55.9092 31.6592C59.2937 26.4463 60.7196 20.1242 60.0078 15.1416C59.3134 10.2807 56.5851 7.8315 53.6074 6.82227ZM51.6631 12.0156C49.9459 11.4681 47.7598 11.698 45.7285 13.0391C45.3318 21.6144 44.5018 29.1941 43.293 35.3379C47.3457 34.0904 50.2876 30.8057 52.2363 27.0674C54.421 22.8762 55.2288 18.3584 55.0029 16.0996C54.7959 14.0294 53.4714 12.5924 51.6631 12.0156Z" fill="white"/>
</svg>
