<svg width="30" height="90" viewBox="0 0 30 90" fill="none" xmlns="http://www.w3.org/2000/svg">
<path d="M27.5 0C28.6046 0 29.5 0.895432 29.5 2V86C29.5 88.2091 27.7091 90 25.5 90H4C1.79086 90 0 88.2091 0 86V2C0 0.89543 0.895432 3.86553e-07 2 0H27.5ZM2 86C2 87.1046 2.89543 88 4 88H25.5C26.6046 88 27.5 87.1046 27.5 86V78.8604C26.1782 79.5345 24.5573 79.9974 22.832 80.3047C20.2448 80.7655 17.2653 80.9068 14.3428 80.8115C11.4179 80.7161 8.51605 80.3832 6.07812 79.8779C4.54455 79.5601 3.13104 79.1605 2 78.6797V86ZM2 76.458C2.91037 76.9798 4.45874 77.4992 6.48438 77.9189C8.79633 78.3981 11.5822 78.7213 14.4072 78.8135C17.2345 78.9057 20.0679 78.7656 22.4805 78.3359C24.6896 77.9424 26.4208 77.3245 27.5 76.5234V2H2V76.458Z" fill="white"/>
</svg>
