<svg width="68" height="53" viewBox="0 0 68 53" fill="none" xmlns="http://www.w3.org/2000/svg">
<path fill-rule="evenodd" clip-rule="evenodd" d="M44.9189 5.47351C47.6967 1.57507 52.7299 -0.350694 57.3223 0.0526113C60.0061 0.288391 62.6133 1.32039 64.5889 3.28503C66.5744 5.25962 67.8505 8.10576 67.9834 11.826C68.0873 14.736 67.7174 17.1539 66.8281 19.3866C65.9418 21.6117 64.5615 23.5941 62.7295 25.662C60.9049 27.7214 58.5927 29.9079 55.8213 32.5165C53.0884 35.0889 49.8836 38.0974 46.1787 41.8622C45.1323 46.5075 43.783 49.9104 42.5762 51.5878C42.1922 52.1213 41.5899 52.361 41.0273 52.3612H6.95703C6.3942 52.3612 5.79137 52.1207 5.40723 51.5868C4.17584 49.875 2.79506 46.3673 1.74023 41.576C1.36748 39.8828 1.03277 38.0169 0.758789 35.996C0.291065 32.5457 8.9407e-08 28.6389 0 24.3612C2.95341e-05 19.3356 0.520954 15.0945 1.25684 11.6522C1.58174 10.1324 1.94826 8.76739 2.33105 7.55945C3.43953 4.06185 4.70921 1.79189 5.53027 0.900267L5.68066 0.755736C6.04322 0.451868 6.47791 0.361232 6.82031 0.361205H41.1631C41.5546 0.361242 42.067 0.479848 42.4541 0.900267C43.0985 1.60013 44.0171 3.14915 44.9189 5.47351ZM6.91016 2.36121C6.35063 3.04136 5.25726 4.94789 4.23828 8.16296C3.87521 9.30863 3.5237 10.6118 3.21191 12.0702C2.50588 15.3728 2.00003 19.4739 2 24.3612C2 28.5486 2.28459 32.3651 2.74023 35.7264C3.00716 37.6954 3.33274 39.5083 3.69336 41.1464C4.71798 45.8004 6.00845 48.9585 6.99121 50.3612H40.9922C41.9749 48.9584 43.2654 45.8004 44.29 41.1464C44.6507 39.5083 44.9762 37.6963 45.2432 35.7274C45.6989 32.3659 45.9834 28.5489 45.9834 24.3612C45.9834 19.4738 45.4775 15.3729 44.7715 12.0702C44.4597 10.612 44.1091 9.30953 43.7461 8.16394C42.7269 4.94797 41.6328 3.04119 41.0732 2.36121H6.91016ZM57.1475 2.0448C52.6189 1.64709 47.7722 3.86797 45.7686 7.93933C45.9002 8.36971 46.0292 8.81899 46.1553 9.28699C48.5414 6.02677 52.0117 4.08039 55.2822 3.68152C57.252 3.44136 59.2024 3.75836 60.79 4.75769C62.3973 5.76946 63.5447 7.42661 63.9668 9.67761C64.3647 11.8 64.4098 13.7047 63.9873 15.5927C63.5655 17.4774 62.692 19.2809 61.3438 21.2216C58.7105 25.0119 54.1294 29.5063 47.1768 36.3368C47.0806 37.0228 46.9754 37.6901 46.8662 38.3387C49.7212 35.5072 52.2478 33.1325 54.4502 31.0594C57.2396 28.4339 59.481 26.3138 61.2334 24.3358C62.9781 22.3665 64.1994 20.5802 64.9697 18.6464C65.7371 16.7198 66.0804 14.5872 65.9844 11.8973C65.8672 8.61778 64.7597 6.27526 63.1787 4.703C61.5879 3.121 59.445 2.24668 57.1475 2.0448ZM59.7246 6.45007C58.6068 5.74655 57.1422 5.46964 55.5244 5.66687C52.3615 6.05259 48.8183 8.23528 46.8008 12.0077C47.497 15.3852 47.9834 19.507 47.9834 24.3612C47.9834 27.5053 47.8257 30.449 47.5566 33.1581C53.5505 27.2605 57.4198 23.3637 59.7012 20.08C60.9488 18.2841 61.6855 16.7185 62.0352 15.1561C62.3841 13.5971 62.3628 11.9754 62.001 10.0458C61.6731 8.29693 60.8228 7.14143 59.7246 6.45007Z" fill="white"/>
</svg>
