<svg width="24" height="62" viewBox="0 0 24 62" fill="none" xmlns="http://www.w3.org/2000/svg">
<path d="M20.9639 0C22.1007 0.000127624 22.9969 0.943389 22.9678 2.06348C22.8806 5.41744 22.9498 8.59307 22.9824 11.5654C23.0148 14.5219 23.011 17.2878 22.7676 19.752C22.2923 24.5635 20.8689 28.5188 16.708 30.5537C16.0133 31.7498 15.6153 32.3618 15.3359 32.9932C15.073 33.5874 14.9326 34.1807 14.874 35.3359C14.8137 36.5254 14.8434 38.2229 14.8906 41.0186C14.9375 43.7973 15 47.6166 15 53C15 53.9457 15.6372 54.7221 16.9629 55.3496C18.2733 55.9698 19.9953 56.3013 21.5098 56.4326C22.8434 56.5483 24 57.6378 24 59.0791C23.9999 60.5032 22.8451 61.6572 21.4209 61.6572H2.5791C1.15493 61.6572 0.000138118 60.5032 0 59.0791C0 57.6378 1.1566 56.5483 2.49023 56.4326C4.00473 56.3013 5.72674 55.9698 7.03711 55.3496C8.36279 54.7221 9 53.9457 9 53C9 47.6166 9.06247 43.7973 9.10938 41.0186C9.15657 38.2229 9.18631 36.5254 9.12598 35.3359C9.06738 34.1807 8.92703 33.5874 8.66406 32.9932C8.38465 32.3618 7.98668 31.7498 7.29199 30.5537C3.1311 28.5188 1.70767 24.5635 1.23242 19.752C0.989044 17.2878 0.985168 14.5219 1.01758 11.5654C1.05016 8.59307 1.11937 5.41744 1.03223 2.06348C1.00312 0.943389 1.89935 0.000127624 3.03613 0H20.9639ZM13.9307 31.3525C13.2636 31.4491 12.5936 31.5 12 31.5C11.4064 31.5 10.7364 31.4491 10.0693 31.3525C10.2307 31.6439 10.3739 31.9164 10.4922 32.1836C10.8853 33.0719 11.0576 33.9255 11.124 35.2344C11.1887 36.5094 11.1559 38.2949 11.1094 41.0527C11.0625 43.8277 11 47.6335 11 53C11 55.0967 9.49406 56.3991 7.89258 57.1572C6.27595 57.9224 4.28655 58.284 2.66309 58.4248C2.25929 58.4598 2 58.7765 2 59.0791C2.00014 59.3987 2.2595 59.6572 2.5791 59.6572H21.4209C21.7405 59.6572 21.9999 59.3987 22 59.0791C22 58.7765 21.7407 58.4598 21.3369 58.4248C19.7134 58.284 17.724 57.9224 16.1074 57.1572C14.5059 56.3991 13 55.0967 13 53C13 47.6335 12.9375 43.8277 12.8906 41.0527C12.8441 38.2949 12.8113 36.5094 12.876 35.2344C12.9424 33.9255 13.1147 33.0719 13.5078 32.1836C13.6261 31.9164 13.7693 31.6439 13.9307 31.3525ZM3.03613 2L3.03516 2.00098C3.03353 2.00268 3.03272 2.00466 3.03223 2.00586V2.00781C3.03214 2.00839 3.0312 2.00984 3.03125 2.01172C3.11963 5.41359 3.04986 8.64296 3.01758 11.5879C2.98512 14.5488 2.99135 17.2137 3.22266 19.5557C3.68576 24.2439 5.0154 27.3318 8.41309 28.8721C9.25738 29.2548 10.7613 29.5 12 29.5C13.2387 29.5 14.7426 29.2548 15.5869 28.8721C18.9846 27.3318 20.3142 24.2439 20.7773 19.5557C21.0086 17.2137 21.0149 14.5488 20.9824 11.5879C20.9501 8.64296 20.8804 5.41359 20.9688 2.01172C20.9688 2.00984 20.9679 2.00839 20.9678 2.00781V2.00586C20.9673 2.00466 20.9665 2.00268 20.9648 2.00098L20.9639 2H3.03613Z" fill="white"/>
</svg>
