<svg width="50" height="78" viewBox="0 0 50 78" fill="none" xmlns="http://www.w3.org/2000/svg">
<path fill-rule="evenodd" clip-rule="evenodd" d="M2.72462 0C1.91174 7.79815e-05 1.17884 0.504862 0.881851 1.25195L0.82814 1.4043C-0.652081 6.25762 -0.0327148 10.2355 1.77345 13.6104C3.55373 16.9367 6.45515 19.6159 9.41896 21.9775C12.4548 24.3966 15.4501 26.4142 17.8008 28.6016C20.1275 30.7667 21.5098 32.8352 21.5098 35.1602V67.5C21.5098 67.7099 21.3762 68.1438 20.8506 68.7441C20.3443 69.3224 19.5519 69.9625 18.461 70.5693C16.2838 71.7803 13.008 72.8076 8.74123 72.9756C7.5336 73.0231 6.50993 74.0024 6.50978 75.2676C6.50978 76.4948 7.48622 77.5 8.71291 77.5352L24.5664 77.9873V78L24.7744 77.9932L24.9815 78L24.9824 77.9873L40.835 77.5352C42.0617 77.5 43.0381 76.4948 43.0381 75.2676C43.038 74.0024 42.0143 73.0231 40.8067 72.9756C36.5397 72.8076 33.2641 71.7803 31.0869 70.5693C29.9958 69.9625 29.2036 69.3224 28.6973 68.7441C28.1716 68.1437 28.0381 67.7099 28.0381 67.5V35.1602C28.0381 32.8352 29.4203 30.7668 31.7471 28.6016C34.0978 26.4141 37.093 24.3967 40.1289 21.9775C43.0928 19.6158 45.9942 16.9368 47.7744 13.6104C49.5806 10.2355 50.2 6.25762 48.7197 1.4043L48.666 1.25195C48.3691 0.504806 47.6362 7.7985e-05 46.8233 0H2.72462ZM19.8408 27.792C21.3477 27.9564 22.99 27.9916 24.5381 27.9971V28C24.6166 28 24.6954 27.9982 24.7744 27.998C24.853 27.9982 24.9317 28 25.0098 28V27.9971C26.5579 27.9916 28.2002 27.9565 29.707 27.792C27.6038 29.8983 26.0381 32.2765 26.0381 35.1602V67.5C26.0381 68.4041 26.5198 69.2933 27.1924 70.0615C27.8846 70.8521 28.8746 71.6273 30.1152 72.3174C32.6015 73.7001 36.1904 74.7959 40.7276 74.9746C40.9191 74.9821 41.0379 75.1325 41.0381 75.2676C41.0381 75.4125 40.9223 75.531 40.7774 75.5352L24.7744 75.9922L8.77052 75.5352C8.62563 75.531 8.50978 75.4125 8.50978 75.2676C8.50994 75.1325 8.62883 74.9821 8.82033 74.9746C13.3573 74.7959 16.9464 73.7001 19.4326 72.3174C20.6732 71.6274 21.6633 70.852 22.3555 70.0615C23.028 69.2933 23.5098 68.4041 23.5098 67.5V35.1602C23.5098 32.2766 21.944 29.8983 19.8408 27.792ZM46.8106 2C48.132 6.34252 47.5628 9.76711 46.0108 12.667C44.4314 15.6179 41.8007 18.0882 38.8818 20.4141C37.0878 21.8436 35.1382 23.2499 33.3379 24.6562H33.3369C32.672 25.1951 31.4614 25.5641 29.8047 25.7705C28.2608 25.9629 26.4995 25.9954 24.7744 25.998C23.049 25.9954 21.2874 25.9629 19.7432 25.7705C18.0866 25.5641 16.8759 25.195 16.211 24.6562H16.21C14.4097 23.25 12.4601 21.8436 10.666 20.4141C7.74721 18.0883 5.11653 15.6179 3.53712 12.667C1.98513 9.76711 1.41592 6.34252 2.73732 2H46.8106Z" fill="white"/>
</svg>
