<svg width="54" height="77" viewBox="0 0 54 77" fill="none" xmlns="http://www.w3.org/2000/svg">
<path d="M51.2344 0C52.0732 0.000318023 52.8481 0.530483 53.1133 1.35449L53.1602 1.52344C54.0877 5.61968 54.0588 11.2783 51.5479 16.3809C49.0244 21.5087 44.0463 25.9605 35.3242 27.7109C34.4128 28.1411 33.0699 28.9696 31.9561 30.0801C30.7942 31.2386 30 32.5801 30 34V66C30 66.6838 30.5078 67.7817 32.1309 68.8193C33.7284 69.8406 36.2989 70.7169 40.0576 70.9434C41.6461 71.0393 43 72.3257 43 74C43 75.6567 41.6567 76.9998 40 77H13.7197C12.0629 77 10.7197 75.6569 10.7197 74C10.7197 72.3255 12.0734 71.0391 13.6621 70.9434C17.4211 70.7168 19.9913 69.8406 21.5889 68.8193C23.2119 67.7817 23.7197 66.6838 23.7197 66V34C23.7197 32.5801 22.9255 31.2386 21.7637 30.0801C20.6498 28.9695 19.307 28.1411 18.3955 27.7109C9.67315 25.9606 4.69541 21.5087 2.17188 16.3809C-0.339173 11.2782 -0.367976 5.61973 0.55957 1.52344L0.606445 1.35449C0.871666 0.530353 1.64633 0.000151391 2.48535 0H51.2344ZM30.9023 28.3223C29.7105 28.4217 28.4132 28.4819 27 28.4941V28.5C26.9178 28.5 26.8361 28.4974 26.7549 28.4971C26.6703 28.4974 26.5854 28.5 26.5 28.5V28.4941C25.1508 28.4821 23.9396 28.4255 22.8301 28.333C22.9465 28.4407 23.0625 28.5501 23.1758 28.6631C24.5137 29.9971 25.7197 31.8201 25.7197 34V66C25.7197 67.6264 24.6036 69.2661 22.666 70.5049C20.703 71.7597 17.775 72.6989 13.7822 72.9395C13.1658 72.9766 12.7197 73.4653 12.7197 74C12.7197 74.5523 13.1674 75 13.7197 75H40C40.5521 74.9998 41 74.5522 41 74C41 73.4654 40.5538 72.9768 39.9375 72.9395C35.945 72.6989 33.0167 71.7596 31.0537 70.5049C29.1161 69.2661 28 67.6264 28 66V34C28 31.8201 29.206 29.9971 30.5439 28.6631C30.6611 28.5463 30.7818 28.4334 30.9023 28.3223ZM2.50391 2C1.66087 5.75578 1.70813 10.9102 3.96582 15.498C6.20557 20.0493 10.6727 24.1554 18.9121 25.7764C21.02 26.191 23.4427 26.483 26.751 26.4971C30.0734 26.4829 32.7047 26.1901 34.8076 25.7764C43.0468 24.1553 47.5142 20.0492 49.7539 15.498C52.0115 10.9103 52.0588 5.75573 51.2158 2H2.50391Z" fill="white"/>
</svg>
