<svg width="38" height="87" viewBox="0 0 38 87" fill="none" xmlns="http://www.w3.org/2000/svg">
<path d="M32.7264 0C34.0153 0.000431828 34.9289 1.18557 34.7059 2.40039C33.6949 7.90569 33.9403 13.4279 34.6033 18.8428C34.9349 21.5501 35.369 24.2181 35.7996 26.8428C36.2291 29.4603 36.6558 32.0402 36.9647 34.5381C37.581 39.522 37.7457 44.3004 36.4793 48.6133C35.2073 52.9452 32.5137 56.7316 27.5867 59.791C27.0767 60.2923 26.4536 60.8353 25.8543 61.374C25.2039 61.9587 24.5494 62.5694 23.9617 63.2246C22.7758 64.547 21.9666 65.9395 21.9666 67.5V76C21.9666 77.052 22.719 78.1836 24.6561 79.1523C26.5689 80.1088 29.4182 80.7758 33.0145 80.9531C34.6163 81.0323 35.9666 82.3293 35.9666 84C35.9666 85.6567 34.6233 86.9998 32.9666 87H4.46662C2.80982 86.9999 1.46662 85.6568 1.46662 84C1.46662 82.3292 2.81679 81.0322 4.41877 80.9531C8.01522 80.7757 10.8644 80.1089 12.7772 79.1523C14.7142 78.1836 15.4666 77.052 15.4666 76V67.5C15.4666 65.9395 14.6574 64.547 13.4715 63.2246C12.8838 62.5693 12.2294 61.9588 11.5789 61.374C10.9796 60.8352 10.3566 60.2924 9.8465 59.791C4.91937 56.7315 2.22599 52.9453 0.953926 48.6133C-0.312512 44.3004 -0.147793 39.5221 0.468575 34.5381C0.777495 32.0402 1.20415 29.4603 1.63361 26.8428C2.06425 24.2181 2.49838 21.5501 2.8299 18.8428C3.49295 13.4279 3.73834 7.90569 2.72736 2.40039C2.50426 1.18545 3.41778 0.000235504 4.70686 0H32.7264ZM22.0194 62.4189C21.0039 62.7195 19.9373 62.9391 18.9061 62.9893L18.4666 63C17.4759 63 16.4792 62.8296 15.533 62.5674C16.6013 63.9152 17.4666 65.5509 17.4666 67.5V76C17.4666 78.1648 15.8956 79.8282 13.6717 80.9404C11.4233 82.0648 8.27249 82.765 4.5174 82.9502C3.91303 82.98 3.46662 83.4617 3.46662 84C3.46662 84.5522 3.91439 84.9999 4.46662 85H32.9666C33.5187 84.9998 33.9666 84.5521 33.9666 84C33.9666 83.4618 33.5201 82.9802 32.9158 82.9502C29.1609 82.765 26.0099 82.0647 23.7615 80.9404C21.5377 79.8282 19.9666 78.1648 19.9666 76V67.5C19.9666 65.4789 20.8969 63.7945 22.0194 62.4189ZM4.70783 2C4.70676 2.00086 4.70486 2.00253 4.70295 2.00488C4.69905 2.00977 4.69561 2.01601 4.69416 2.02148C4.69307 2.02586 4.69274 2.03129 4.69416 2.03906C5.75738 7.82871 5.48962 13.5786 4.81525 19.0859C4.47809 21.8394 4.03725 24.5452 3.60725 27.166C3.17604 29.7941 2.75606 32.3323 2.45295 34.7832C1.84527 39.6969 1.72514 44.1411 2.87287 48.0498C3.97134 51.7906 6.25268 55.1105 10.5662 57.8818L10.9901 58.1484L11.0291 58.1729L11.0662 58.2002C11.6716 58.6542 12.8047 59.3644 14.1658 59.958C15.5342 60.5547 17.0581 61 18.4666 61L18.7352 60.9951C20.0906 60.9435 21.6344 60.5129 23.0447 59.9473C24.5465 59.3449 25.7889 58.6338 26.367 58.2002L26.4041 58.1729L26.4432 58.1484L26.867 57.8818C31.1804 55.1106 33.4619 51.7905 34.5604 48.0498C35.7081 44.1412 35.588 39.6968 34.9803 34.7832C34.6772 32.3323 34.2572 29.7941 33.826 27.166C33.396 24.5452 32.9552 21.8394 32.618 19.0859C31.9436 13.5786 31.6759 7.82871 32.7391 2.03906C32.7405 2.03137 32.7402 2.02583 32.7391 2.02148C32.7376 2.01607 32.7341 2.00975 32.7303 2.00488C32.7285 2.00267 32.7265 2.0009 32.7254 2H4.70783Z" fill="white"/>
</svg>
