<svg width="53" height="77" viewBox="0 0 53 77" fill="none" xmlns="http://www.w3.org/2000/svg">
<path fill-rule="evenodd" clip-rule="evenodd" d="M35.8655 0C37.1989 3.87673e-05 38.1376 1.27046 37.804 2.53125C36.5994 7.08215 35.9153 11.2064 35.5364 15.0312C37.7327 13.8729 39.7795 13.3397 41.6634 13.3652C44.1 13.3983 46.1602 14.3624 47.8021 15.9131C51.0356 18.9674 52.652 24.2796 52.7484 29.4814C52.8447 34.6877 51.4249 40.121 48.1898 43.4326C46.5513 45.1097 44.4521 46.2326 41.9017 46.4736C39.6439 46.6869 37.101 46.2013 34.2796 44.9014C33.7489 46.7836 33.0078 48.321 32.0911 49.5703C30.3143 51.9916 27.9644 53.2267 25.5335 53.8525C25.034 54.0887 24.2985 54.5364 23.6937 55.1221C23.0464 55.7489 22.6859 56.3955 22.6859 57C22.6859 57.7524 22.8191 58.1781 22.9612 58.4482C23.1072 58.7255 23.3034 58.9231 23.6048 59.1943C23.8839 59.4456 24.3218 59.8126 24.6478 60.3447C24.9948 60.9115 25.1859 61.5999 25.1859 62.5C25.1859 63.367 25.0401 64.0331 24.7806 64.5928C24.5287 65.1359 24.1898 65.5252 23.9525 65.8086C23.7059 66.103 23.5401 66.3129 23.4153 66.6006C23.2932 66.8824 23.1859 67.3012 23.1859 68C23.1859 68.6939 23.4267 69.138 23.8167 69.4775C24.2483 69.853 24.9207 70.1462 25.8314 70.3555C27.6805 70.7801 29.9937 70.7626 32.1058 70.8682C33.613 70.9436 34.6859 72.2089 34.6859 73.6367C34.6857 75.218 33.4038 76.4998 31.8226 76.5H6.04914C4.46805 76.4996 3.18605 75.2179 3.18586 73.6367C3.18586 72.209 4.25889 70.9437 5.76593 70.8682C7.87802 70.7626 10.1912 70.7801 12.0403 70.3555C12.951 70.1463 13.6234 69.853 14.055 69.4775C14.4451 69.138 14.6859 68.694 14.6859 68C14.6859 67.3011 14.5785 66.8824 14.4564 66.6006C14.3316 66.3129 14.1659 66.1031 13.9193 65.8086C13.6819 65.5252 13.343 65.1358 13.0911 64.5928C12.8317 64.0332 12.6859 63.367 12.6859 62.5C12.6859 61.6 12.877 60.9115 13.2239 60.3447C13.5498 59.8126 13.9877 59.4456 14.2669 59.1943C14.5684 58.923 14.7645 58.7255 14.9105 58.4482C15.0526 58.1781 15.1859 57.7525 15.1859 57C15.1859 56.3954 14.8254 55.749 14.178 55.1221C13.5731 54.5363 12.8377 54.0887 12.3382 53.8525C9.90735 53.2267 7.55733 51.9916 5.78058 49.5703C3.991 47.1313 2.8614 43.5967 2.68683 38.5342C2.32808 28.1294 4.08316 17.7012 0.0676914 2.53125C-0.265817 1.27058 0.672973 0.000232578 2.00617 0H35.8655ZM21.6439 54.4238C20.8 54.4758 19.9737 54.4923 19.1859 54.4971V54.5C19.103 54.5 19.0196 54.4983 18.9359 54.498C18.8522 54.4983 18.7686 54.5 18.6859 54.5V54.4971C17.8981 54.4923 17.0715 54.4758 16.2278 54.4238C16.7655 55.1253 17.1859 55.9941 17.1859 57C17.1859 57.9974 17.0066 58.7594 16.68 59.3799C16.3573 59.993 15.9282 60.3896 15.6048 60.6807C15.2592 60.9917 15.0717 61.1565 14.929 61.3896C14.8074 61.5885 14.6859 61.9006 14.6859 62.5C14.6859 63.1328 14.7901 63.5018 14.9056 63.751C15.0286 64.0163 15.19 64.211 15.4525 64.5244C15.7056 64.8267 16.0402 65.2281 16.2903 65.8047C16.5431 66.3876 16.6859 67.0873 16.6859 68C16.6859 69.2687 16.1973 70.2642 15.3675 70.9863C14.579 71.6723 13.5396 72.0631 12.4876 72.3047C10.4105 72.7816 7.78751 72.7701 5.86554 72.8662C5.50325 72.8847 5.18586 73.1927 5.18586 73.6367C5.18605 74.1133 5.57262 74.4996 6.04914 74.5H31.8226C32.2992 74.4998 32.6857 74.1134 32.6859 73.6367C32.6859 73.1925 32.3686 72.8845 32.0062 72.8662C30.0841 72.7701 27.4611 72.7817 25.3841 72.3047C24.3321 72.0631 23.2927 71.6723 22.5042 70.9863C21.6745 70.2643 21.1859 69.2686 21.1859 68C21.1859 67.0874 21.3286 66.3876 21.5814 65.8047C21.8314 65.2281 22.1661 64.8267 22.4193 64.5244C22.6818 64.211 22.8431 64.0163 22.9661 63.751C23.0816 63.5018 23.1859 63.1329 23.1859 62.5C23.1859 61.9005 23.0644 61.5885 22.9427 61.3896C22.8 61.1566 22.6126 60.9918 22.2669 60.6807C21.9435 60.3896 21.5144 59.9929 21.1917 59.3799C20.8652 58.7594 20.6859 57.9973 20.6859 57C20.6859 55.9941 21.1063 55.1252 21.6439 54.4238ZM2.00421 2.00195C2.00155 2.00557 2.00071 2.0098 2.00031 2.01172L1.99933 2.01367C1.99936 2.0144 2.0004 2.01622 2.00129 2.01953C6.09291 17.4772 4.33936 28.4456 4.68488 38.4658C4.85099 43.282 5.91909 46.378 7.39289 48.3867C8.85371 50.3776 10.7917 51.4063 12.928 51.9404C14.8697 52.4258 16.9424 52.4942 18.9359 52.499C20.9294 52.4943 23.0019 52.4258 24.9437 51.9404C27.08 51.4063 29.0179 50.3776 30.4788 48.3867C31.9527 46.378 33.0207 43.2821 33.1868 38.4658C33.5324 28.4456 31.7788 17.4772 35.8704 2.01953C35.8713 2.0162 35.8723 2.01442 35.8724 2.01367L35.8714 2.01172C35.871 2.00975 35.8702 2.00557 35.8675 2.00195L35.8655 2H2.00617L2.00421 2.00195ZM41.6361 15.3652C39.8763 15.3415 37.777 15.935 35.3323 17.4521C35.1972 19.3978 35.1336 21.2682 35.1116 23.082C35.4079 22.8419 35.7396 22.5758 36.0794 22.3115C37.2808 21.3771 38.8503 20.2656 40.4319 19.7383C41.2328 19.4713 42.1034 19.3317 42.9652 19.4902C43.8529 19.6537 44.6545 20.1208 45.3021 20.9287C46.5385 22.4718 47.1858 25.2169 47.1859 29.5C47.1858 34.0007 46.5627 36.9325 45.4398 38.7246C44.8635 39.6442 44.1475 40.2764 43.3206 40.6416C42.5014 41.0034 41.645 41.0718 40.8314 40.9863C39.2473 40.8198 37.6536 40.0447 36.4525 39.4355C35.9556 39.1836 35.5354 38.9648 35.1722 38.7939C35.1099 40.2991 34.9634 41.6668 34.7376 42.9092C37.4823 44.2384 39.7978 44.6635 41.7142 44.4824C43.7514 44.2898 45.4221 43.4048 46.7601 42.0352C49.4777 39.253 50.8394 34.4369 50.7484 29.5186C50.6571 24.5956 49.1173 19.9065 46.429 17.3672C45.1101 16.1215 43.5174 15.3908 41.6361 15.3652ZM42.6038 21.457C42.1828 21.3796 41.6697 21.4341 41.0648 21.6357C39.8342 22.046 38.4969 22.9658 37.3079 23.8906C36.7105 24.3553 36.2138 24.7697 35.7552 25.1348C35.5366 25.3087 35.3261 25.4716 35.14 25.6016C35.1296 25.6088 35.1186 25.6155 35.1077 25.623C35.1296 29.4627 35.2724 33.0757 35.2269 36.6523C35.3765 36.7035 35.5257 36.7623 35.6702 36.8242C36.1737 37.0401 36.7738 37.3557 37.3568 37.6514C38.5929 38.2783 39.8747 38.8745 41.0403 38.9971C41.6015 39.056 42.0892 38.9982 42.512 38.8115C42.9273 38.6281 43.352 38.2884 43.7444 37.6621C44.5588 36.3625 45.1858 33.9043 45.1859 29.5C45.1858 25.2834 44.5207 23.1522 43.7415 22.1797C43.3816 21.7306 42.9988 21.5299 42.6038 21.457Z" fill="white"/>
</svg>
