<svg width="52" height="89" viewBox="0 0 52 89" fill="none" xmlns="http://www.w3.org/2000/svg">
<path d="M45.0001 0C46.1045 0.000197889 47.0001 0.895552 47.0001 2V2.49219C46.9983 2.48138 46.9965 2.50974 47.0597 2.58398C47.1365 2.67409 47.2669 2.77775 47.4376 2.87109C48.3191 3.35285 49.0001 4.29457 49.0001 5.5C49.0001 6.70543 48.3191 7.64715 47.4376 8.12891C47.2669 8.22225 47.1365 8.32591 47.0597 8.41602C47.0168 8.46636 47.0035 8.49562 47.0001 8.50586V10C47.0031 10.0118 47.0164 10.0463 47.0645 10.1045C47.14 10.1954 47.2653 10.2945 47.4181 10.374C48.1933 10.7771 49.0001 11.6033 49.0001 13C49.0001 14.3967 48.1933 15.2229 47.4181 15.626C47.2617 15.7073 47.1447 15.8045 47.0841 15.8809C47.0762 15.8908 47.0709 15.8997 47.0665 15.9062C47.325 17.6975 48.3121 18.9418 49.4142 20.4355C50.4918 21.8963 51.6693 23.6013 51.4981 26.0693C51.0408 32.6618 51.4999 69.4386 51.5001 72.5C51.5002 74.2614 50.7731 76.0705 49.7442 77.8711C48.7089 79.683 47.2965 81.6055 45.8009 83.5996C45.427 84.0981 44.9819 84.7737 44.3126 85.3828C43.6153 86.0173 42.6958 86.5743 41.3155 87.0342C38.6635 87.9176 34.1946 88.4747 26.0147 88.4971V88.5C25.9284 88.5 25.8425 88.4982 25.7569 88.498C25.6717 88.4982 25.5861 88.5 25.5001 88.5V88.4971C17.3201 88.4747 12.8513 87.9177 10.1993 87.0342C8.81894 86.5743 7.89955 86.0174 7.20224 85.3828C6.53288 84.7737 6.08787 84.0982 5.71396 83.5996C4.21833 81.6054 2.80595 79.683 1.7706 77.8711C0.741743 76.0705 0.0146678 74.2614 0.01474 72.5C0.0148873 69.4386 0.474014 32.6618 0.0166931 26.0693C-0.154528 23.6013 1.02301 21.8963 2.10068 20.4355C3.2027 18.9418 4.18983 17.6975 4.44833 15.9062C4.4439 15.8997 4.43869 15.8909 4.43076 15.8809C4.37013 15.8045 4.25325 15.7074 4.09677 15.626C3.3215 15.2229 2.51474 14.3968 2.51474 13C2.51474 11.6032 3.3215 10.7771 4.09677 10.374C4.2496 10.2945 4.37488 10.1954 4.45029 10.1045C4.52364 10.016 4.51474 9.98206 4.51474 10V8.50586C4.51634 8.52134 4.52155 8.49399 4.45517 8.41602C4.37837 8.32588 4.24805 8.22229 4.07724 8.12891C3.19564 7.64718 2.51474 6.70551 2.51474 5.5C2.51474 4.29449 3.19564 3.35282 4.07724 2.87109C4.24805 2.77771 4.37837 2.67412 4.45517 2.58398C4.51838 2.50974 4.51649 2.48138 4.51474 2.49219V2C4.51474 0.895471 5.41023 6.59689e-05 6.51474 0H45.0001ZM6.51474 2V2.5C6.51474 3.64234 5.57878 4.33048 5.03622 4.62695C4.72767 4.79558 4.51474 5.10104 4.51474 5.5C4.51474 5.89896 4.72767 6.20442 5.03622 6.37305C5.57878 6.66952 6.51474 7.35766 6.51474 8.5V10C6.51474 11.1256 5.6133 11.8403 5.01865 12.1494C4.86557 12.2291 4.74341 12.3299 4.66122 12.4492C4.58557 12.5592 4.51474 12.7261 4.51474 13C4.51474 13.2739 4.58557 13.4408 4.66122 13.5508C4.74341 13.6701 4.86557 13.7709 5.01865 13.8506C5.35182 14.0238 5.71682 14.2837 5.99716 14.6367C6.28287 14.9966 6.5233 15.5143 6.43857 16.1338C6.10771 18.5495 4.74264 20.2234 3.71005 21.623C2.64424 23.0678 1.89518 24.2489 2.01181 25.9307C2.47546 32.6138 2.01489 69.5611 2.01474 72.5C2.01468 73.7385 2.53692 75.1796 3.5079 76.8789C4.4724 78.5668 5.81037 80.3948 7.31454 82.4004C7.77569 83.0153 8.06099 83.4601 8.54794 83.9033C9.00715 84.3212 9.67173 84.7501 10.8321 85.1367C13.1833 85.9199 17.4357 86.4866 25.7569 86.498C34.0786 86.4866 38.3315 85.9199 40.6827 85.1367C41.843 84.7502 42.5077 84.3212 42.9669 83.9033C43.4538 83.4601 43.7392 83.0152 44.2003 82.4004C45.7044 80.3949 47.0424 78.5668 48.0069 76.8789C48.9779 75.1797 49.5002 73.7385 49.5001 72.5C49.4999 69.5611 49.0394 32.6138 49.503 25.9307C49.6196 24.2489 48.8705 23.0677 47.8048 21.623C46.7722 20.2234 45.4071 18.5495 45.0763 16.1338C44.9915 15.5143 45.232 14.9966 45.5177 14.6367C45.798 14.2838 46.1631 14.0238 46.4962 13.8506C46.6492 13.7709 46.7715 13.67 46.8536 13.5508C46.9292 13.4408 47.0001 13.2738 47.0001 13C47.0001 12.7262 46.9292 12.5592 46.8536 12.4492C46.7715 12.33 46.6492 12.2291 46.4962 12.1494C45.9015 11.8403 45.0001 11.1256 45.0001 10V8.5C45.0001 7.35766 45.936 6.66952 46.4786 6.37305C46.7871 6.2044 47.0001 5.89888 47.0001 5.5C47.0001 5.10112 46.7871 4.7956 46.4786 4.62695C45.936 4.33048 45.0001 3.64234 45.0001 2.5V2H6.51474Z" fill="white"/>
</svg>
