<svg width="55" height="78" viewBox="0 0 55 78" fill="none" xmlns="http://www.w3.org/2000/svg">
<path fill-rule="evenodd" clip-rule="evenodd" d="M52.4897 0C53.6073 0 54.5028 0.928044 54.479 2.03613C54.3865 6.3368 53.7119 9.44532 52.6303 11.7559C51.5387 14.0878 50.0567 15.5538 48.4526 16.5977C46.8943 17.6117 45.1831 18.2413 43.7768 18.8535C42.32 19.4877 41.1304 20.1215 40.2485 21.1504C38.9525 22.6624 38.7753 23.9648 38.5512 25.6035C38.3193 27.3001 38.0425 29.2623 36.2895 31.5996C35.447 32.7229 34.2681 33.705 33.1079 34.4668C32.2169 35.0518 31.2975 35.5312 30.4897 35.8584V67.5C30.4897 68.9808 32.4722 73.0996 40.7807 73.4736C41.9704 73.5273 42.9897 74.4914 42.9897 75.75C42.9897 76.9926 41.9824 78 40.7397 78H13.7397C12.4971 78 11.4897 76.9926 11.4897 75.75C11.4897 74.4914 12.509 73.5273 13.6987 73.4736C22.0072 73.0996 23.9897 68.9808 23.9897 67.5V35.8584C23.182 35.5312 22.2626 35.0518 21.3716 34.4668C20.2113 33.705 19.0324 32.7229 18.1899 31.5996C16.437 29.2623 16.1601 27.3001 15.9282 25.6035C15.7042 23.9648 15.527 22.6624 14.2309 21.1504C13.349 20.1215 12.1594 19.4877 10.7026 18.8535C9.29635 18.2413 7.5851 17.6117 6.02683 16.5977C4.42275 15.5538 2.94071 14.0878 1.8491 11.7559C0.767558 9.44532 0.0929835 6.3368 0.000464883 2.03613C-0.0233668 0.928044 0.872107 0 1.98972 0H52.4897ZM28.4897 36.4033C28.1652 36.4486 27.8334 36.4747 27.4897 36.4883V36.5C27.4056 36.5 27.3223 36.4977 27.2397 36.4961C27.1571 36.4977 27.0738 36.5 26.9897 36.5V36.4883C26.6461 36.4747 26.3142 36.4486 25.9897 36.4033V67.5C25.9897 70.4762 22.6813 75.0714 13.7886 75.4717C13.5992 75.4804 13.4897 75.628 13.4897 75.75C13.4897 75.8881 13.6017 76 13.7397 76H40.7397C40.8778 76 40.9897 75.8881 40.9897 75.75C40.9897 75.628 40.8802 75.4804 40.6909 75.4717C31.7981 75.0714 28.4897 70.4762 28.4897 67.5V36.4033ZM2.00046 2C2.08982 6.12336 2.73519 8.93125 3.66062 10.9082C4.57646 12.8646 5.78946 14.0576 7.11765 14.9219C8.49182 15.8161 9.95079 16.3449 11.5005 17.0195C12.9995 17.6721 14.5524 18.4541 15.7485 19.8496C17.4525 21.8376 17.6809 23.6598 17.9096 25.333C18.1304 26.9482 18.3537 28.486 19.7895 30.4004C20.447 31.277 21.4257 32.1097 22.4692 32.7949C23.5121 33.4797 24.5542 33.9739 25.2905 34.2061C25.8562 34.3844 26.4523 34.4761 27.1733 34.4961H27.3061C28.0271 34.4761 28.6233 34.3844 29.1889 34.2061C29.9253 33.9739 30.9674 33.4797 32.0102 32.7949C33.0538 32.1097 34.0324 31.277 34.6899 30.4004C36.1257 28.486 36.349 26.9482 36.5698 25.333C36.7985 23.6598 37.027 21.8376 38.7309 19.8496C39.9271 18.4541 41.4799 17.6721 42.979 17.0195C44.5287 16.3449 45.9876 15.8161 47.3618 14.9219C48.69 14.0576 49.903 12.8646 50.8188 10.9082C51.7443 8.93125 52.3896 6.12336 52.479 2H2.00046Z" fill="white"/>
</svg>
