<svg width="54" height="81" viewBox="0 0 54 81" fill="none" xmlns="http://www.w3.org/2000/svg">
<path d="M51.9053 0C53.5945 0 54.4823 1.94422 53.4766 3.23828C37.2343 24.1373 36.5884 25.2832 31.21 31.1738C30.8235 31.5971 30.5267 32.0327 30.3145 32.6504C30.096 33.2863 29.9502 34.1672 29.9502 35.5V69C29.9502 70.5822 30.1686 71.9767 31.5215 73.0938C32.9604 74.2817 35.8591 75.3095 41.7207 75.4766C43.2023 75.519 44.4502 76.7175 44.4502 78.25C44.4502 79.7688 43.219 81 41.7002 81H12.2002C10.6814 81 9.4502 79.7688 9.4502 78.25C9.4502 76.7175 10.6981 75.519 12.1797 75.4766C18.0413 75.3095 20.94 74.2817 22.3789 73.0938C23.7319 71.9766 23.9502 70.5822 23.9502 69V35.5C23.9502 34.1672 23.8044 33.2863 23.5859 32.6504C23.3737 32.0327 23.0769 31.5971 22.6904 31.1738C17.312 25.2832 16.6661 24.1373 0.423828 3.23828C-0.581839 1.94424 0.305944 4.68316e-05 1.99512 0H51.9053ZM28.1875 32.8691C27.8164 32.9563 27.4154 33 26.9502 33C26.485 33 26.084 32.9563 25.7129 32.8691C25.8691 33.607 25.9502 34.467 25.9502 35.5V69C25.9502 70.7593 25.7127 72.9346 23.6523 74.6357C21.6779 76.2659 18.2052 77.3055 12.2373 77.4756C11.7869 77.4885 11.4502 77.8497 11.4502 78.25C11.4502 78.6642 11.786 79 12.2002 79H41.7002C42.1144 79 42.4502 78.6642 42.4502 78.25C42.4502 77.8497 42.1135 77.4884 41.6631 77.4756C35.6952 77.3055 32.2225 76.2659 30.248 74.6357C28.1878 72.9346 27.9502 70.7593 27.9502 69V35.5C27.9502 34.467 28.0313 33.607 28.1875 32.8691ZM2.00195 2C2.00106 2.00217 2.00035 2.00413 2 2.00586H1.99902C1.99974 2.00702 2.00121 2.00853 2.00293 2.01074C18.2052 22.8582 18.8528 24.0005 24.085 29.7354C24.8443 30.2375 25.2306 30.5246 25.6426 30.7295C25.9922 30.9034 26.3374 31 26.9502 31C27.563 31 27.9082 30.9034 28.2578 30.7295C28.6698 30.5246 29.0561 30.2375 29.8154 29.7354C35.0476 24.0005 35.6952 22.8583 51.8975 2.01074C51.8992 2.00853 51.9006 2.00702 51.9014 2.00586H51.9004C51.9 2.00413 51.8993 2.00217 51.8984 2H2.00195Z" fill="white"/>
</svg>
