<svg width="64" height="81" viewBox="0 0 64 81" fill="none" xmlns="http://www.w3.org/2000/svg">
<path fill-rule="evenodd" clip-rule="evenodd" d="M41.0564 0C42.1609 0.000183491 43.0564 0.895544 43.0564 2V2.27441C43.0603 2.2861 43.0742 2.31847 43.1199 2.37305C43.2031 2.47221 43.3422 2.58592 43.5252 2.69727C44.2982 3.16746 44.8806 4.02552 44.8807 5.10547C44.8805 6.1854 44.2982 7.04353 43.5252 7.51367C43.3421 7.62509 43.2031 7.73868 43.1199 7.83789C43.0753 7.8912 43.0607 7.92322 43.0564 7.93555V9.12402C43.0564 9.10341 43.0458 9.13784 43.1248 9.23438C43.2056 9.33297 43.3387 9.44229 43.5037 9.53711C44.2024 9.93855 44.8806 10.7107 44.8807 11.9482C44.8805 13.1857 44.2024 13.958 43.5037 14.3594C43.3342 14.4568 43.21 14.5627 43.1453 14.6455C43.1371 14.656 43.1324 14.6659 43.1277 14.6729C43.3024 15.7584 43.7848 16.6425 44.4041 17.5342C44.8689 18.2034 45.5018 18.9886 46.0213 19.8086C50.9199 18.9714 55.3063 19.7691 58.4783 23.126C61.7419 26.5801 63.4998 32.5275 63.4998 41.4189C63.4998 46.8165 63.236 51.0434 62.6355 54.3262C62.0361 57.6031 61.0854 60.0309 59.6424 61.75C56.8807 65.0397 52.6338 65.378 47.1531 64.998C47.1579 65.5871 47.1619 66.0099 47.1619 66.2334C47.1619 67.8633 46.4889 69.5305 45.5477 71.1777C44.5999 72.8362 43.3082 74.5943 41.9441 76.4131C41.6069 76.8628 41.1936 77.4888 40.575 78.0518C39.9283 78.6402 39.0785 79.1543 37.8094 79.5771C35.3755 80.3879 31.2862 80.8966 23.8221 80.917V80.9189C23.7432 80.9189 23.6648 80.9181 23.5867 80.918C23.509 80.9181 23.4308 80.9189 23.3523 80.9189V80.917C15.8882 80.8966 11.7988 80.3879 9.36504 79.5771C8.09595 79.1543 7.24606 78.6402 6.59941 78.0518C5.9808 77.4888 5.56756 76.8628 5.23027 76.4131C3.86615 74.5942 2.57447 72.8362 1.62675 71.1777C0.685509 69.5305 0.0125087 67.8633 0.0124964 66.2334C0.0126509 63.4336 0.432356 29.889 0.0154261 23.8779C-0.141907 21.6089 0.93342 20.038 1.91093 18.7109C2.91131 17.3529 3.79345 16.2493 4.04668 14.6719C4.04209 14.665 4.03702 14.6557 4.0291 14.6455C3.96431 14.5625 3.83984 14.4566 3.6707 14.3594C2.97203 13.958 2.29387 13.1857 2.29375 11.9482C2.29377 10.7108 2.97207 9.93857 3.6707 9.53711C3.83567 9.44231 3.9688 9.33295 4.04961 9.23438C4.09886 9.17422 4.11395 9.13776 4.11797 9.12402V7.93555C4.1137 7.92321 4.09917 7.89124 4.05449 7.83789C3.97128 7.73866 3.8324 7.62512 3.64922 7.51367C2.87619 7.04353 2.29386 6.1854 2.29375 5.10547C2.2938 4.02557 2.87628 3.16747 3.64922 2.69727C3.83219 2.58594 3.97127 2.47219 4.05449 2.37305C4.10014 2.31854 4.11408 2.28615 4.11797 2.27441V2C4.11797 0.895608 5.01364 0.000286427 6.11797 0H41.0564ZM6.11797 2V2.28125C6.11777 2.86217 5.86374 3.32777 5.58672 3.6582C5.3131 3.98443 4.97669 4.23082 4.68828 4.40625C4.45232 4.54987 4.2938 4.79088 4.29375 5.10547C4.29386 5.42009 4.45222 5.66112 4.68828 5.80469C4.9768 5.98017 5.31302 6.22634 5.58672 6.55273C5.86387 6.8833 6.11797 7.34939 6.11797 7.93066V9.12402C6.11775 9.69658 5.87231 10.1651 5.59648 10.502C5.32231 10.8365 4.98025 11.0914 4.66679 11.2715C4.54912 11.3391 4.46069 11.4197 4.40214 11.5107C4.34838 11.5945 4.29376 11.7266 4.29375 11.9482C4.2938 12.17 4.34834 12.3021 4.40214 12.3857C4.46073 12.4768 4.54905 12.5573 4.66679 12.625C4.97645 12.8029 5.33119 13.0639 5.60527 13.415C5.88451 13.7729 6.1284 14.2934 6.03398 14.9199C5.70316 17.1103 4.44805 18.6393 3.52129 19.8975C2.56124 21.2008 1.9073 22.252 2.01054 23.7402C2.43373 29.8436 2.01266 63.5556 2.0125 66.2334C2.01254 67.3404 2.48079 68.6398 3.36406 70.1855C4.24091 71.72 5.45825 73.3837 6.83086 75.2139C7.25529 75.7798 7.50897 76.1752 7.94511 76.5723C8.35364 76.944 8.94883 77.3302 9.99785 77.6797C12.1285 78.3894 15.9959 78.9065 23.5867 78.917C31.1781 78.9065 35.0458 78.3894 37.1766 77.6797C38.2255 77.3302 38.8208 76.944 39.2293 76.5723C39.6654 76.1753 39.9192 75.7798 40.3436 75.2139C41.7163 73.3836 42.9345 71.72 43.8113 70.1855C44.6946 68.6398 45.1619 67.3404 45.1619 66.2334C45.1619 65.9011 45.1548 65.0981 45.1443 63.9277C45.1293 62.239 45.1066 59.7931 45.0818 56.9277C45.0066 48.2178 44.9194 35.593 45.0223 28.4053C45.0517 26.3495 45.0964 24.7136 45.1639 23.7402C45.2264 22.8389 45.0096 22.1013 44.6316 21.3867C44.1469 20.4705 43.5085 19.7503 42.7615 18.6748C42.0583 17.6623 41.3741 16.4674 41.1404 14.9189C41.0461 14.2924 41.2897 13.7718 41.5691 13.4141C41.8433 13.0632 42.1984 12.8027 42.5076 12.625C42.6253 12.5574 42.7137 12.4767 42.7723 12.3857C42.8261 12.3021 42.8806 12.17 42.8807 11.9482C42.8806 11.7265 42.826 11.5945 42.7723 11.5107C42.7137 11.4197 42.6254 11.3392 42.5076 11.2715C42.1941 11.0914 41.8521 10.8366 41.5779 10.502C41.3021 10.1651 41.0567 9.69658 41.0564 9.12402V7.93066C41.0564 7.34944 41.3106 6.88329 41.5877 6.55273C41.8613 6.22639 42.1976 5.98016 42.4861 5.80469C42.7222 5.66112 42.8806 5.42009 42.8807 5.10547C42.8806 4.79083 42.7221 4.54986 42.4861 4.40625C42.1977 4.23081 41.8613 3.98445 41.5877 3.6582C41.3107 3.32777 41.0566 2.86216 41.0564 2.28125V2H6.11797ZM57.0252 24.5C54.5793 21.9114 51.1591 21.0775 46.9158 21.6914C47.1149 22.3478 47.215 23.0693 47.159 23.8779C47.1109 24.5707 47.0748 25.6526 47.0467 27.0352C50.0245 26.1748 52.7041 26.1881 54.6199 28.3125C55.6618 29.468 56.3686 31.1488 56.823 33.3496C57.2795 35.5603 57.4998 38.3861 57.4998 41.9189C57.4998 45.94 57.312 49.0391 56.9002 51.3965C56.4909 53.739 55.8421 55.4663 54.8289 56.6367C53.7744 57.8546 52.426 58.3572 50.9041 58.4561C49.7588 58.5304 48.4767 58.3781 47.0926 58.1309C47.1092 60.0074 47.1244 61.6626 47.1365 62.9902C52.7168 63.385 56.023 62.9513 58.1111 60.4639C59.2385 59.1207 60.0993 57.0788 60.6687 53.9658C61.2372 50.8581 61.4998 46.771 61.4998 41.4189C61.4998 32.6952 59.7574 27.3919 57.0252 24.5ZM53.1346 29.6514C51.9276 28.3133 50.0797 28.1386 47.0145 29.1357C46.9296 36.1629 47.0039 47.7072 47.075 56.0928C48.5618 56.3719 49.7707 56.5251 50.7742 56.46C51.9008 56.3869 52.6936 56.0462 53.3162 55.3271C53.9802 54.5602 54.5454 53.2555 54.9305 51.0518C55.3129 48.8624 55.4998 45.8975 55.4998 41.9189C55.4998 38.4524 55.2828 35.7774 54.865 33.7539C54.4452 31.7209 53.8396 30.4333 53.1346 29.6514Z" fill="white"/>
</svg>
