<svg width="43" height="81" viewBox="0 0 43 81" fill="none" xmlns="http://www.w3.org/2000/svg">
<path fill-rule="evenodd" clip-rule="evenodd" d="M40.4798 0C41.3468 4.78472e-05 42.121 0.563747 42.3782 1.39258L42.4222 1.5625C42.9907 4.19529 43.1463 6.43459 42.8607 8.53418C42.5743 10.639 41.8525 12.5466 40.7405 14.5244C39.6361 16.4887 38.1346 18.5413 36.2835 20.9287C34.4118 23.3428 32.21 26.0652 29.5921 29.4893C29.0906 30.1451 28.5719 30.8302 28.0374 31.5459C25.9025 34.405 25.1185 37.8406 25.1185 40.2422V40.2637L24.5989 64.0156C24.6084 66.3021 26.0837 69.071 28.7503 71.4062C31.3986 73.7252 35.1005 75.4995 39.2816 75.8418C40.6005 75.9497 41.7484 77.0238 41.7484 78.4512C41.7483 79.8589 40.6073 81 39.1995 81H3.80402C2.39647 80.9998 1.25432 79.8587 1.25422 78.4512C1.25422 77.024 2.40283 75.9495 3.72199 75.8418C7.91417 75.5002 11.6256 73.7265 14.2806 71.4072C16.9631 69.0638 18.4417 66.2835 18.4417 63.9932L17.9212 40.2637V40.2422C17.9212 37.841 17.1352 34.406 14.9954 31.5469C14.4599 30.8312 13.9413 30.1461 13.4388 29.4902C10.8149 26.0659 8.60765 23.3439 6.73176 20.9297C4.87664 18.5422 3.37185 16.4898 2.26496 14.5254C1.15049 12.5475 0.426931 10.6394 0.13996 8.53418C-0.146264 6.43426 0.00957092 4.19448 0.579413 1.56152L0.624335 1.39258C0.881553 0.563949 1.65508 0.000304407 2.5218 0H40.4798ZM25.4925 31.1357C24.2779 31.4756 22.9306 31.7787 21.8333 31.8945V31.9473C21.7004 31.9472 21.5611 31.9416 21.4163 31.9326C21.2714 31.9415 21.1322 31.9473 21.0003 31.9473V31.8945C19.915 31.7781 18.6061 31.4739 17.43 31.1338C17.3122 31.0997 17.1946 31.0636 17.0775 31.0283C19.1465 34.1246 19.9168 37.6491 19.9212 40.2197L20.4417 63.9717V63.9932C20.4417 67.073 18.5227 70.3564 15.596 72.9131C12.6419 75.4937 8.53284 77.4572 3.8841 77.8359C3.49843 77.8677 3.25422 78.1676 3.25422 78.4512C3.25432 78.7542 3.50104 78.9998 3.80402 79H39.1995C39.5027 79 39.7483 78.7543 39.7484 78.4512C39.7484 78.1675 39.5048 77.8666 39.1185 77.835C34.4799 77.4552 30.3801 75.4918 27.4329 72.9111C24.5131 70.3543 22.5989 67.0716 22.5989 63.9932V63.9717L23.1185 40.2197C23.1229 37.6402 23.8973 34.0995 25.9788 30.9951C25.8175 31.0427 25.6549 31.0903 25.4925 31.1357ZM2.53156 2C1.99802 4.47108 1.87688 6.46233 2.12238 8.26367C2.36769 10.0634 2.98693 11.7306 4.00812 13.543C5.03706 15.369 6.46171 17.3234 8.31086 19.7031C10.1071 22.0148 12.331 24.7653 14.887 28.0957C15.4685 28.3852 16.6477 28.826 17.9857 29.2129C19.2523 29.5792 20.5211 29.8558 21.4183 29.9277C22.3282 29.8556 23.6422 29.5771 24.9544 29.21C26.3426 28.8215 27.5596 28.3819 28.1419 28.0957C30.6921 24.7657 32.9113 22.0156 34.7034 19.7041C36.5485 17.3244 37.9706 15.37 38.9974 13.5439C40.0163 11.7317 40.6344 10.0645 40.8792 8.26465C41.1243 6.46293 41.0024 4.47131 40.47 2H2.53156Z" fill="white"/>
</svg>
