<svg width="43" height="92" viewBox="0 0 43 92" fill="none" xmlns="http://www.w3.org/2000/svg">
<path d="M39.7041 0C40.6246 0 41.4735 0.641342 41.6445 1.60645C42.2214 4.86157 41.6593 7.6093 40.8105 11.0459C39.9607 14.487 38.793 18.7177 37.9922 25.124C37.2223 31.2828 37.5928 40.4229 37.7266 48.9844C37.793 53.2361 37.7999 57.3349 37.5674 60.7861C37.3382 64.1871 36.8693 67.1375 35.8809 68.9736C34.0363 72.3993 32.3337 74.1051 31.1221 75.3105C30.5074 75.9221 30.1169 76.3149 29.8564 76.7197C29.6285 77.0741 29.5 77.4424 29.5 78C29.5 78.1989 29.5794 78.4493 29.8496 78.7754C30.1261 79.109 30.5587 79.4664 31.1494 79.8457C32.3371 80.6082 33.9465 81.326 35.6562 82.0859C37.3214 82.826 39.0872 83.6083 40.4307 84.4707C41.1052 84.9038 41.7278 85.3905 42.1895 85.9473C42.6573 86.5116 43 87.199 43 88C43 88.3211 42.9567 88.6884 42.7949 89.0615C42.6299 89.442 42.3673 89.77 42.0107 90.0459C41.337 90.567 40.3095 90.9177 38.8682 91.1826C35.9532 91.7184 30.7407 92 21.5 92C12.2593 92 7.04677 91.7184 4.13184 91.1826C2.69046 90.9177 1.66299 90.567 0.989258 90.0459C0.632706 89.77 0.370052 89.442 0.205078 89.0615C0.0433454 88.6884 0 88.3211 0 88C0 87.199 0.342736 86.5116 0.810547 85.9473C1.27222 85.3905 1.89478 84.9038 2.56934 84.4707C3.91284 83.6083 5.67862 82.826 7.34375 82.0859C9.05351 81.326 10.6629 80.6082 11.8506 79.8457C12.4413 79.4664 12.8739 79.109 13.1504 78.7754C13.4206 78.4493 13.5 78.1989 13.5 78C13.5 77.2668 13.2813 76.8248 12.7881 76.2549C12.5161 75.9407 12.1845 75.6158 11.752 75.1846C11.3298 74.7637 10.8404 74.2686 10.3076 73.6572C9.34549 72.5532 8.25813 71.0889 7.11914 68.9736C6.13069 67.1375 5.66176 64.1871 5.43262 60.7861C5.2001 57.3349 5.207 53.2361 5.27344 48.9844C5.40721 40.4229 5.77766 31.2828 5.00781 25.124C4.20702 18.7177 3.03935 14.487 2.18945 11.0459C1.34067 7.6093 0.778602 4.86157 1.35547 1.60645C1.52651 0.641342 2.37541 0 3.2959 0H39.7041ZM15.3516 76.8145C15.4468 77.1706 15.5 77.561 15.5 78C15.5 78.801 15.1573 79.4884 14.6895 80.0527C14.2278 80.6095 13.6052 81.0962 12.9307 81.5293C11.5872 82.3917 9.82138 83.174 8.15625 83.9141C6.44649 84.674 4.83713 85.3918 3.64941 86.1543C3.05867 86.5336 2.62614 86.891 2.34961 87.2246C2.07944 87.5507 2 87.8011 2 88C2 88.1449 2.01921 88.2208 2.03906 88.2666C2.05568 88.3049 2.09415 88.3713 2.21387 88.4639C2.49333 88.68 3.12232 88.9638 4.49316 89.2158C7.20326 89.714 12.2409 90 21.5 90C30.7591 90 35.7967 89.714 38.5068 89.2158C39.8777 88.9638 40.5067 88.68 40.7861 88.4639C40.9058 88.3713 40.9443 88.3049 40.9609 88.2666C40.9808 88.2208 41 88.1449 41 88C41 87.8011 40.9206 87.5507 40.6504 87.2246C40.3739 86.891 39.9413 86.5336 39.3506 86.1543C38.1629 85.3918 36.5535 84.674 34.8438 83.9141C33.1786 83.174 31.4128 82.3917 30.0693 81.5293C29.3948 81.0962 28.7722 80.6095 28.3105 80.0527C27.8427 79.4884 27.5 78.801 27.5 78C27.5 77.6836 27.5287 77.3899 27.5811 77.1133C27.4906 77.1412 27.4 77.1691 27.3086 77.1953C25.5075 77.7126 23.4349 77.9402 21.3516 77.875C19.3415 77.8121 17.2524 77.4715 15.3516 76.8145ZM3.31836 2C2.83395 4.78551 3.29064 7.16446 4.13086 10.5664C4.97446 13.982 6.17407 18.3311 6.99219 24.876C7.78484 31.2172 7.40529 40.5771 7.27344 49.0156C7.20706 53.2638 7.20226 57.2901 7.42871 60.6514C7.65854 64.0626 8.11952 66.6124 8.88086 68.0264C9.94639 70.0051 10.9471 71.3464 11.8154 72.3428C11.8203 72.3483 11.8252 72.3538 11.8301 72.3594C13.7902 74.5458 17.5543 75.7551 21.4141 75.876C23.3228 75.9357 25.184 75.7248 26.7559 75.2734C28.3441 74.8173 29.547 74.1417 30.2471 73.3418L30.252 73.3457C31.3261 72.2477 32.6645 70.7278 34.1191 68.0264C34.8805 66.6124 35.3415 64.0626 35.5713 60.6514C35.7977 57.2901 35.7929 53.2638 35.7266 49.0156C35.5947 40.5771 35.2152 31.2172 36.0078 24.876C36.8259 18.3311 38.0255 13.982 38.8691 10.5664C39.7094 7.16446 40.166 4.78551 39.6816 2H3.31836Z" fill="white"/>
</svg>
