<svg width="49" height="77" viewBox="0 0 49 77" fill="none" xmlns="http://www.w3.org/2000/svg">
<path d="M46.4258 0C47.5954 0 48.4991 0.997852 48.4238 2.14258C48.0022 8.55466 48.1482 11.6088 48.3887 13.7168C48.6247 15.7861 49 17.2008 49 20C49 23.6826 48.2006 25.7148 47.3252 27.3984C46.4664 29.05 45.7182 30.0942 45.4941 32.1104C45.0842 35.8002 43.9922 53.4438 43.0576 66.5713C42.8608 69.3358 42.6717 71.8975 42.4971 74.0801C42.4686 74.4357 42.3906 74.8169 42.1963 75.1797C41.9958 75.5538 41.7027 75.85 41.334 76.0771C40.6519 76.4972 39.6854 76.6909 38.4668 76.8066C35.9889 77.042 31.7073 77 24.5 77C17.2927 77 13.0111 77.042 10.5332 76.8066C9.31464 76.6909 8.34814 76.4972 7.66602 76.0771C7.29728 75.85 7.00417 75.5538 6.80371 75.1797C6.60937 74.8169 6.53141 74.4357 6.50293 74.0801C6.32832 71.8975 6.13919 69.3358 5.94238 66.5713C5.00782 53.4438 3.91585 35.8002 3.50586 32.1104C3.28182 30.0942 2.53361 29.05 1.6748 27.3984C0.799361 25.7148 0 23.6826 0 20C0 17.2008 0.375269 15.7861 0.611328 13.7168C0.85178 11.6088 0.997836 8.55466 0.576172 2.14258C0.500906 0.997852 1.4046 0 2.57422 0H46.4258ZM40.8545 69.2998C40.0557 69.6019 39.0687 69.7706 37.9375 69.8711C35.0656 70.1263 30.6409 70 24.5 70C18.3591 70 13.9344 70.1263 11.0625 69.8711C9.93132 69.7706 8.9443 69.6019 8.14551 69.2998C8.26789 70.9664 8.38522 72.5218 8.49707 73.9199C8.51189 74.1051 8.54476 74.1931 8.56738 74.2354C8.58401 74.2663 8.61511 74.3126 8.71484 74.374C8.97087 74.5316 9.52518 74.7017 10.7217 74.8154C13.0756 75.0391 17.2077 75 24.5 75C31.7923 75 35.9244 75.0391 38.2783 74.8154C39.4748 74.7017 40.0291 74.5316 40.2852 74.374C40.3849 74.3126 40.416 74.2663 40.4326 74.2354C40.4552 74.1931 40.4881 74.1051 40.5029 73.9199C40.6148 72.5218 40.7321 70.9664 40.8545 69.2998ZM2.57617 2V2.00098C2.57422 2.0031 2.57278 2.00542 2.57227 2.00684V2.01172C2.9986 8.49507 2.85715 11.6769 2.59863 13.9434C2.33572 16.2482 2 17.347 2 20C2 23.317 2.70075 25.0353 3.4502 26.4766C4.21634 27.9498 5.21819 29.4061 5.49414 31.8896C5.90986 35.6313 7.00711 53.3724 7.93652 66.4277C7.95336 66.6606 8.01154 66.8105 8.08301 66.9189C8.15581 67.0293 8.27971 67.1529 8.50977 67.2783C9.00608 67.549 9.85614 67.756 11.2393 67.8789C13.9934 68.1237 18.2409 68 24.5 68C30.7591 68 35.0066 68.1237 37.7607 67.8789C39.1439 67.756 39.9939 67.549 40.4902 67.2783C40.7203 67.1529 40.8442 67.0293 40.917 66.9189C40.9885 66.8105 41.0466 66.6606 41.0635 66.4277C41.9929 53.3724 43.0901 35.6313 43.5059 31.8896C43.7818 29.4061 44.7837 27.9498 45.5498 26.4766C46.2993 25.0353 47 23.317 47 20C47 17.347 46.6643 16.2482 46.4014 13.9434C46.1428 11.6769 46.0014 8.49507 46.4277 2.01172V2.00684C46.4272 2.00542 46.4258 2.0031 46.4238 2.00098V2H2.57617Z" fill="white"/>
</svg>
