<svg width="101" height="129" viewBox="0 0 101 129" fill="none" xmlns="http://www.w3.org/2000/svg">
<path d="M80.5737 65.5C86.4979 62.5 96.569 53.2 89.46 40C80.5737 23.5 69.46 28.1797 68.46 33.0899M80.5737 65.5C76.9324 55.6209 70.9902 44.3962 68.46 33.0899M80.5737 65.5C81.6669 68.466 82.5527 71.3108 83.0764 74M68.46 33.0899C67.4053 28.3769 66.9434 23.6498 67.4882 19M67.4882 19C67.8648 15.7859 68.7224 12.6088 70.1976 9.4989C70.5227 8.8137 70.0405 8.00068 69.2821 8.00271C62.021 8.02217 50.2077 8.10972 40.96 7C28.46 5.5 17.46 1 13.46 1C10.8644 1 8.31264 2.31578 6.8186 3.34648C6.33911 3.67728 6.31079 4.35118 6.70106 4.78364C9.16563 7.51461 13.055 12.974 13.9597 18C18.4598 43 3.45966 58 1.45978 76.5C-1.35086 102.5 9.45996 115.5 13.9598 121.5C17.96 126.834 17.96 127.5 42.4596 127.5C66.9593 127.5 66.9593 126.834 70.9594 121.5C75.4593 115.5 86.2701 102.5 83.4595 76.5C83.3711 75.6829 83.2418 74.8492 83.0764 74M67.4882 19C66.6094 26.5 85.46 13.5 96.96 38C105.321 55.8127 91.3709 69.3333 83.0764 74" stroke="white" stroke-width="2"/>
</svg>
