<svg width="26" height="66" viewBox="0 0 26 66" fill="none" xmlns="http://www.w3.org/2000/svg">
<path d="M25.4531 0L24.9053 1.37109C24.6315 2.05547 24.2298 2.82216 23.8115 3.60449C23.3843 4.40363 22.9281 5.23943 22.502 6.12207C21.6443 7.89872 20.9766 9.73181 20.9766 11.5V33C20.9766 35.8523 19.0123 39.9041 14.9766 41.1348V58.4277C15.0006 58.4595 15.0604 58.5286 15.2012 58.6299C15.4931 58.8398 15.9574 59.0662 16.5742 59.2891C17.7954 59.7302 19.3802 60.0782 20.751 60.3086C22.0008 60.5186 22.9764 61.5904 22.9766 62.9062C22.9766 64.3385 21.8151 65.5 20.3828 65.5H5.07031C3.63802 65.5 2.47656 64.3385 2.47656 62.9062C2.47674 61.5904 3.45236 60.5186 4.70215 60.3086C6.07294 60.0782 7.65771 59.7302 8.87891 59.2891C9.49574 59.0662 9.96005 58.8398 10.252 58.6299C10.3927 58.5286 10.4525 58.4595 10.4766 58.4277V41.1348C6.44082 39.9041 4.47656 35.8523 4.47656 33V11.5C4.47656 9.73181 3.80886 7.89872 2.95117 6.12207C2.52507 5.23943 2.06886 4.40363 1.6416 3.60449C1.22332 2.82216 0.821602 2.05547 0.547852 1.37109L0 0H25.4531ZM12.4766 41.5V58.5C12.4766 59.3372 11.8948 59.9124 11.4199 60.2539C10.9087 60.6215 10.2448 60.922 9.55859 61.1699C8.17304 61.6704 6.45282 62.0427 5.0332 62.2812C4.69846 62.3376 4.47675 62.6153 4.47656 62.9062C4.47656 63.234 4.74259 63.5 5.07031 63.5H20.3828C20.7105 63.5 20.9766 63.234 20.9766 62.9062C20.9764 62.6153 20.7547 62.3376 20.4199 62.2812C19.0003 62.0427 17.2801 61.6704 15.8945 61.1699C15.2083 60.922 14.5444 60.6215 14.0332 60.2539C13.5583 59.9124 12.9766 59.3372 12.9766 58.5V41.5C12.8926 41.5 12.8094 41.4949 12.7266 41.4922C12.6437 41.4949 12.5605 41.5 12.4766 41.5ZM3.05664 2C3.16589 2.21011 3.28201 2.43058 3.40527 2.66113C3.82172 3.44005 4.3031 4.32316 4.75195 5.25293C5.64425 7.10126 6.47656 9.26823 6.47656 11.5V33C6.47656 35.3302 8.25099 38.7005 11.6699 39.376C12.003 39.4418 12.3552 39.4814 12.7266 39.4941C13.0979 39.4814 13.4501 39.4418 13.7832 39.376C17.2021 38.7005 18.9766 35.3302 18.9766 33V11.5C18.9766 9.26823 19.8089 7.10126 20.7012 5.25293C21.15 4.32316 21.6314 3.44005 22.0479 2.66113C22.1711 2.43058 22.2872 2.21011 22.3965 2H3.05664Z" fill="white"/>
</svg>
