<svg width="128" height="99" viewBox="0 0 128 99" fill="none" xmlns="http://www.w3.org/2000/svg">
<path fill-rule="evenodd" clip-rule="evenodd" d="M115.568 0L115.855 0.262695C119.256 3.38026 123.587 9.03665 125.899 15.957C128.219 22.9047 128.514 31.1751 123.728 39.3809C115.895 52.8086 101.436 60.7108 86.38 64.6689C83.048 65.7281 78.0612 67.7423 73.9836 70.5967C69.8566 73.4857 66.9481 77.0264 67.1418 81.0967C67.3152 84.7385 70.4163 87.3468 74.9943 89.1611C79.5031 90.9479 85.0404 91.7893 89.2316 92.1094C90.7838 92.2281 92.0255 93.5093 92.0256 95.0986C92.0255 96.736 90.698 98.0633 89.0607 98.0635H38.465C36.8276 98.0634 35.5002 96.7361 35.5002 95.0986C35.5002 93.5092 36.7418 92.2279 38.2941 92.1094C42.4854 91.7893 48.0227 90.9479 52.5314 89.1611C57.1093 87.3468 60.2105 84.7384 60.3839 81.0967C60.5777 77.0264 57.669 73.4856 53.5422 70.5967C49.4646 67.7423 44.4778 65.7281 41.1457 64.6689C26.0893 60.7109 11.6311 52.8086 3.79801 39.3809C-0.9887 31.1751 -0.693477 22.9047 1.62711 15.957C3.93866 9.03655 8.27014 3.38022 11.6711 0.262695L11.9582 0H115.568ZM76.4787 66.7168C72.2078 67.3739 67.9784 67.7442 63.9211 67.8613V67.8721C63.8681 67.8707 63.8149 67.8677 63.7619 67.8662C63.7094 67.8676 63.657 67.8707 63.6047 67.8721L63.6037 67.8613C59.5465 67.7442 55.3177 67.3739 51.047 66.7168C52.2907 67.3958 53.523 68.1421 54.6886 68.958C58.95 71.9411 62.6273 76.0408 62.382 81.1924C62.1479 86.1049 57.9776 89.1543 53.2687 91.0205C48.4907 92.9141 42.7253 93.7767 38.4464 94.1035C37.9039 94.1449 37.5002 94.5871 37.5002 95.0986C37.5002 95.6315 37.9322 96.0634 38.465 96.0635H89.0607C89.5934 96.0633 90.0255 95.6314 90.0256 95.0986C90.0255 94.5872 89.6217 94.1451 89.0793 94.1035C84.8005 93.7767 79.035 92.9141 74.257 91.0205C69.548 89.1543 65.3779 86.105 65.1437 81.1924C64.8984 76.0408 68.5756 71.9411 72.8371 68.958C74.0027 68.142 75.235 67.3958 76.4787 66.7168ZM12.7453 2C9.60111 4.97335 5.65073 10.2254 3.52457 16.5908C1.34393 23.1195 1.09016 30.7695 5.52555 38.373C12.9931 51.1742 26.8917 58.862 41.6945 62.7461C49.1001 64.6892 56.6977 65.6678 63.7619 65.8643C70.8266 65.6679 78.4251 64.6894 85.8312 62.7461C100.634 58.862 114.533 51.1743 122 38.373C126.435 30.7696 126.182 23.1194 124.001 16.5908C121.875 10.2255 117.925 4.97339 114.78 2H12.7453Z" fill="white"/>
</svg>
