<svg width="50" height="84" viewBox="0 0 50 84" fill="none" xmlns="http://www.w3.org/2000/svg">
<path fill-rule="evenodd" clip-rule="evenodd" d="M48.4406 0.00642884C48.4926 0.00117592 48.7401 -0.0267972 49.0089 0.0962726C49.1722 0.171071 49.3547 0.30747 49.4787 0.52889C49.5983 0.742868 49.617 0.952959 49.6076 1.10018C49.5912 1.3535 49.485 1.54138 49.4513 1.60018C49.3319 1.80831 49.1017 2.15719 48.8507 2.54061C48.5882 2.94175 48.2744 3.42239 47.9552 3.93709C47.3018 4.99073 46.6794 6.10242 46.4074 6.91854C46.1929 7.56245 46.0166 8.70375 45.7921 10.2672C45.5745 11.7832 45.3205 13.6113 44.9386 15.4889C44.1861 19.1884 42.8903 23.3591 40.1281 25.8453C36.8716 28.7761 34.2862 31.2552 30.6222 32.568C30.0142 33.635 28.8141 36.6627 28.4562 41.6734C28.2075 45.1555 27.9578 50.39 27.8331 55.2525C27.7076 60.1481 27.7125 64.5676 27.9513 66.4781C28.4366 70.3601 29.8396 74.1742 34.2755 75.6529C36.2167 76.2999 40.9024 77.2453 44.0705 77.8336C45.4475 78.0893 46.4591 79.2886 46.4591 80.6988C46.4589 82.302 45.159 83.6021 43.5558 83.6021H6.05385C4.4507 83.602 3.15076 82.3019 3.15053 80.6988C3.15053 79.2887 4.16225 78.0893 5.5392 77.8336C8.70715 77.2453 13.3927 76.2999 15.3341 75.6529C19.7702 74.1742 21.173 70.3601 21.6583 66.4781C21.8972 64.5676 21.902 60.1481 21.7765 55.2525C21.6518 50.39 21.4022 45.1555 21.1535 41.6734C20.7955 36.6624 19.5954 33.6348 18.9874 32.568C15.3233 31.2552 12.7382 28.7762 9.48159 25.8453C6.71929 23.3591 5.42353 19.1884 4.67104 15.4889C4.28916 13.6113 4.03521 11.7832 3.81752 10.2672C3.59301 8.70363 3.41678 7.56243 3.20229 6.91854C2.93023 6.10236 2.3079 4.9908 1.65444 3.93709C1.33517 3.42229 1.02149 2.94179 0.758929 2.54061C0.507907 2.15706 0.277726 1.80828 0.158343 1.60018C0.124618 1.54137 0.0184982 1.35351 0.00209316 1.10018C-0.00731466 0.953007 0.011499 0.742796 0.130999 0.52889C0.254912 0.307585 0.437517 0.171096 0.600726 0.0962726C0.869464 -0.0268128 1.11689 0.00115415 1.16909 0.00642884C1.2602 0.015635 1.33946 0.0342029 1.38198 0.0445148C1.42864 0.055834 1.47722 0.0686021 1.50698 0.0767413C1.54242 0.0864365 1.56631 0.0929085 1.58803 0.0982257C1.59503 0.0999394 1.60094 0.101101 1.60561 0.102132H48.004C48.0086 0.101121 48.0148 0.0998847 48.0216 0.0982257C48.0433 0.0929296 48.0675 0.0863727 48.1027 0.0767413C48.1323 0.0686277 48.1811 0.0558091 48.2277 0.0445148C48.2701 0.0342192 48.3496 0.0156506 48.4406 0.00642884ZM28.129 33.231C27.0079 33.4214 25.9381 33.4478 24.4591 33.4478C23.4994 33.4478 22.8571 33.4374 22.2658 33.3736C21.9999 33.3449 21.7494 33.3042 21.4894 33.2535C22.1743 35.0618 22.8845 37.8344 23.1486 41.5308C23.3998 45.0487 23.6502 50.3147 23.7755 55.2017C23.9 60.0557 23.9039 64.6368 23.6427 66.7262C23.1279 70.8439 21.5304 75.6959 15.9669 77.5504C13.8662 78.2506 9.02759 79.2204 5.90444 79.8004C5.46558 79.882 5.15053 80.262 5.15053 80.6988C5.15076 81.1974 5.55527 81.602 6.05385 81.6021H43.5558C44.0544 81.6021 44.4589 81.1974 44.4591 80.6988C44.4591 80.262 44.1442 79.8819 43.7052 79.8004C40.5819 79.2204 35.7433 78.2506 33.6427 77.5504C28.0794 75.6958 26.4817 70.8438 25.9669 66.7262C25.7058 64.6368 25.7097 60.0557 25.8341 55.2017C25.9594 50.3148 26.2098 45.0487 26.4611 41.5308C26.7262 37.8191 27.4415 35.0388 28.129 33.231ZM2.85854 2.10213C3.01658 2.34745 3.18433 2.61035 3.35366 2.88338C4.00558 3.93461 4.74559 5.22325 5.09975 6.28573C5.38506 7.14186 5.58417 8.50068 5.79702 9.98299C6.01681 11.5137 6.26294 13.2808 6.631 15.0904C7.37851 18.7654 8.58211 22.3453 10.8195 24.359C14.2797 27.4731 16.5955 29.6724 19.966 30.7906C20.2676 30.8907 20.5783 30.9825 20.8996 31.065C21.6087 31.2472 22.0232 31.3359 22.4806 31.3853C22.9509 31.4361 23.492 31.4478 24.4591 31.4478C26.372 31.4478 27.3963 31.4024 28.7101 31.065C29.0312 30.9826 29.3422 30.8906 29.6437 30.7906C33.014 29.6725 35.3301 27.473 38.7902 24.359C41.0275 22.3453 42.2311 18.7654 42.9787 15.0904C43.3467 13.2808 43.5929 11.5137 43.8126 9.98299C44.0255 8.50077 44.2246 7.14187 44.5099 6.28573C44.864 5.22332 45.6041 3.93457 46.256 2.88338C46.4253 2.61043 46.5931 2.34738 46.7511 2.10213H2.85854Z" fill="white"/>
</svg>
