<svg width="37" height="105" viewBox="0 0 37 105" fill="none" xmlns="http://www.w3.org/2000/svg">
<path d="M29.3703 0C30.0834 0 30.7563 0.378693 31.1085 1.01855L31.174 1.15039C33.2576 5.7069 36.8922 16.0008 36.4992 25.043C36.1325 33.4771 31.3734 42.6559 25.631 47.333C25.4158 47.5082 25.197 47.6764 24.9777 47.8398C23.6082 49.0612 21.5001 51.9627 21.5001 56.5V91.0361L21.4972 91.0713C21.4182 92.1772 21.4455 93.8475 21.7628 95.2549C21.922 95.9605 22.1404 96.5351 22.4054 96.9326C22.6616 97.3166 22.9143 97.4719 23.1642 97.5137C25.1249 97.8405 30.2214 98.4237 33.7257 98.8047C35.3029 98.9764 36.5001 100.307 36.5001 101.896C36.4999 103.61 35.1093 105 33.3947 105H3.13394C1.41934 105 0.0287264 103.61 0.0284667 101.896C0.0284667 100.304 1.22743 98.9824 2.79019 98.792C5.8985 98.4135 9.88188 97.8394 11.8361 97.5137C12.676 97.3736 13.2478 97.0795 13.6544 96.7197C14.0653 96.3562 14.3624 95.8774 14.5734 95.2881C15.0115 94.0642 15.0285 92.5378 15.0285 91V56.5C15.0285 51.9624 12.9204 49.0611 11.5509 47.8398C11.3315 47.6763 11.1128 47.5083 10.8976 47.333C5.15522 42.6559 0.396143 33.4771 0.0294432 25.043C-0.363548 16.0008 3.27096 5.70693 5.35464 1.15039L5.42007 1.01855C5.77228 0.378637 6.44522 5.39964e-05 7.15835 0H29.3703ZM20.9474 50.0068C20.1487 50.2689 19.3398 50.4312 18.5285 50.4814V50.5C18.4402 50.5 18.352 50.4969 18.2638 50.4941C18.1761 50.4969 18.0879 50.5 18.0001 50.5V50.4814C17.1889 50.4311 16.3799 50.2689 15.5812 50.0068C16.417 51.7185 17.0285 53.889 17.0285 56.5V91C17.0285 92.4622 17.0323 94.3525 16.4562 95.9619C16.16 96.7893 15.6991 97.5813 14.9796 98.2178C14.256 98.8579 13.324 99.293 12.1642 99.4863C10.1759 99.8177 6.16324 100.396 3.0314 100.777C2.45569 100.848 2.02847 101.332 2.02847 101.896C2.02873 102.505 2.52391 103 3.13394 103H33.3947C34.0048 103 34.4999 102.506 34.5001 101.896C34.5001 101.33 34.0734 100.854 33.5089 100.793C30.0281 100.415 24.8651 99.8247 22.8351 99.4863C21.8856 99.3278 21.2047 98.7367 20.7414 98.042C20.2869 97.3605 19.9983 96.5226 19.8117 95.6953C19.4409 94.0514 19.4153 92.1908 19.5001 90.9629V56.5C19.5001 53.8891 20.1116 51.7184 20.9474 50.0068ZM7.16519 2C5.12986 6.45706 1.65516 16.3934 2.02749 24.957C2.36953 32.8202 6.85618 41.4442 12.1339 45.7598C12.3441 45.9012 12.5738 46.0768 12.8146 46.2871C14.6669 47.6532 16.5272 48.4216 18.2638 48.4932C20.0008 48.422 21.8612 47.6535 23.714 46.2871C23.9547 46.0769 24.1846 45.9012 24.3947 45.7598C29.6725 41.4442 34.1591 32.8203 34.5011 24.957C34.8735 16.3934 31.3987 6.45703 29.3634 2H7.16519Z" fill="white"/>
</svg>
