<svg width="47" height="97" viewBox="0 0 47 97" fill="none" xmlns="http://www.w3.org/2000/svg">
<path d="M38.8936 0C39.5831 0 40.2405 0.354668 40.6006 0.969727L40.6689 1.0957C42.7832 5.39635 46.5 15.5911 46.5 26.5C46.5 37.6761 40.0407 45.8503 31.3438 49.0352C30.9295 49.1869 30.5097 49.3253 30.0859 49.4541C29.3865 49.7539 28.6062 50.2031 27.917 50.8193C26.8327 51.7887 26 53.1415 26 55V86.5C26 87.4882 26.5224 88.6986 28.376 89.7139C30.2726 90.7526 33.5077 91.5417 38.7139 91.5322C40.2144 91.5295 41.5 92.7285 41.5 94.2793C41.4999 95.7819 40.2819 96.9999 38.7793 97H7.7207C6.21813 96.9999 5.00007 95.7819 5 94.2793C5 92.7285 6.28563 91.5295 7.78613 91.5322C12.9923 91.5417 16.2274 90.7526 18.124 89.7139C19.9776 88.6986 20.5 87.4882 20.5 86.5V55C20.5 53.1415 19.6673 51.7887 18.583 50.8193C17.8938 50.2031 17.1135 49.7539 16.4141 49.4541C15.9903 49.3253 15.5705 49.1869 15.1562 49.0352C6.45928 45.8503 0 37.6761 0 26.5C0 15.5911 3.71678 5.39635 5.83105 1.0957L5.89941 0.969727C6.25947 0.354668 6.91692 0 7.60645 0H38.8936ZM25.6074 50.3613C24.9113 50.4351 24.2083 50.4786 23.5 50.4932V50.5C23.4166 50.5 23.3333 50.497 23.25 50.4961C23.1667 50.497 23.0834 50.5 23 50.5V50.4932C22.2917 50.4786 21.5887 50.4351 20.8926 50.3613C21.8308 51.543 22.5 53.0775 22.5 55V86.5C22.5 88.3576 21.4476 90.1736 19.085 91.4678C16.7653 92.7383 13.142 93.542 7.78223 93.5322C7.33719 93.5316 7 93.8845 7 94.2793C7.00007 94.6773 7.3227 94.9999 7.7207 95H38.7793C39.1773 94.9999 39.4999 94.6773 39.5 94.2793C39.5 93.8845 39.1628 93.5316 38.7178 93.5322C33.358 93.542 29.7347 92.7383 27.415 91.4678C25.0524 90.1736 24 88.3576 24 86.5V55C24 53.0775 24.6692 51.543 25.6074 50.3613ZM7.61621 2C5.59149 6.12737 2 16.0006 2 26.5C2 36.8106 7.90757 44.2345 15.8096 47.1436C16.1917 47.2379 16.6285 47.3781 17.0918 47.5703C19.0547 48.157 21.1254 48.4719 23.25 48.4951C25.3746 48.4719 27.4453 48.157 29.4082 47.5703C29.8715 47.3781 30.3083 47.2379 30.6904 47.1436C38.5924 44.2345 44.5 36.8106 44.5 26.5C44.5 16.0006 40.9085 6.12737 38.8838 2H7.61621Z" fill="white"/>
</svg>
