<svg xmlns="http://www.w3.org/2000/svg" viewBox="0 0 512 512" width="512" height="512">
  <defs>
    <linearGradient id="gradient" x1="0%" y1="0%" x2="100%" y2="100%">
      <stop offset="0%" style="stop-color:#10b981;stop-opacity:1" />
      <stop offset="100%" style="stop-color:#059669;stop-opacity:1" />
    </linearGradient>
  </defs>
  
  <!-- Background Circle -->
  <circle cx="256" cy="256" r="240" fill="url(#gradient)"/>
  
  <!-- Fork -->
  <g fill="#ffffff">
    <rect x="140" y="150" width="20" height="220" rx="10"/>
    <rect x="120" y="150" width="15" height="80" rx="7"/>
    <rect x="145" y="150" width="15" height="100" rx="7"/>
    <rect x="165" y="150" width="15" height="80" rx="7"/>
  </g>
  
  <!-- Spoon -->
  <g fill="#ffffff">
    <rect x="340" y="210" width="20" height="160" rx="10"/>
    <ellipse cx="350" cy="180" rx="35" ry="40"/>
  </g>
  
  <!-- Dollar Sign ($) -->
  <g fill="#fbbf24">
    <path d="M 256 100 L 256 410 M 220 130 Q 220 100 256 100 Q 292 100 292 130 Q 292 160 256 160 L 256 160 Q 220 160 220 190 Q 220 220 256 220 Q 292 220 292 250 Q 292 280 256 280 L 256 280 Q 220 280 220 310 Q 220 340 256 340 Q 292 340 292 370 Q 292 400 256 400 Q 220 400 220 370" 
          stroke="#fbbf24" 
          stroke-width="28" 
          fill="none" 
          stroke-linecap="round"/>
  </g>
</svg>
